<?xml version="1.0" encoding="UTF-8" standalone="no"?>
<!-- Created with Inkscape (http://www.inkscape.org/) -->

<svg
   xmlns:dc="http://purl.org/dc/elements/1.1/"
   xmlns:cc="http://creativecommons.org/ns#"
   xmlns:rdf="http://www.w3.org/1999/02/22-rdf-syntax-ns#"
   xmlns:svg="http://www.w3.org/2000/svg"
   xmlns="http://www.w3.org/2000/svg"
   xmlns:sodipodi="http://sodipodi.sourceforge.net/DTD/sodipodi-0.dtd"
   xmlns:inkscape="http://www.inkscape.org/namespaces/inkscape"
   version="1.1"
   id="svg2"
   xml:space="preserve"
   width="191.62933"
   height="177.408"
   viewBox="0 0 191.62933 177.408"
   sodipodi:docname="escudo_ITIZ_original.svg"
   inkscape:export-filename="/opt/lampp/htdocs/wp-content/themes/Tecnologico/images/escudo_ITIZ_original.png"
   inkscape:export-xdpi="395.96072"
   inkscape:export-ydpi="395.96072"
   inkscape:version="0.92.2 (unknown)"><metadata
     id="metadata8"><rdf:RDF><cc:Work
         rdf:about=""><dc:format>image/svg+xml</dc:format><dc:type
           rdf:resource="http://purl.org/dc/dcmitype/StillImage" /><dc:title></dc:title></cc:Work></rdf:RDF></metadata><defs
     id="defs6"><clipPath
       clipPathUnits="userSpaceOnUse"
       id="clipPath18"><path
         d="M 0,133.056 H 143.722 V 0 H 0 Z"
         id="path16"
         inkscape:connector-curvature="0" /></clipPath></defs><sodipodi:namedview
     pagecolor="#ffffff"
     bordercolor="#666666"
     borderopacity="1"
     objecttolerance="10"
     gridtolerance="10"
     guidetolerance="10"
     inkscape:pageopacity="0"
     inkscape:pageshadow="2"
     inkscape:window-width="1366"
     inkscape:window-height="715"
     id="namedview4"
     showgrid="false"
     inkscape:zoom="1.3302669"
     inkscape:cx="16.507275"
     inkscape:cy="88.704002"
     inkscape:window-x="0"
     inkscape:window-y="0"
     inkscape:window-maximized="1"
     inkscape:current-layer="g10" /><g
     id="g10"
     inkscape:groupmode="layer"
     inkscape:label="escudo_ITIZ_original"
     transform="matrix(1.3333333,0,0,-1.3333333,0,177.408)"><g
       id="g12"><g
         id="g14"
         clip-path="url(#clipPath18)"><g
           id="g20"
           transform="translate(124.3032,107.8121)"><path
             d="m 0,0 c -2.767,0 -5.01,2.243 -5.01,5.01 0,2.767 2.243,5.01 5.01,5.01 2.767,0 5.01,-2.243 5.01,-5.01 C 5.01,2.243 2.767,0 0,0 m 0,11.217 c -3.387,0 -6.132,-2.746 -6.132,-6.132 0,-3.387 2.745,-6.132 6.132,-6.132 3.387,0 6.132,2.745 6.132,6.132 0,3.386 -2.745,6.132 -6.132,6.132"
             style="fill:#2e409b;fill-opacity:1;fill-rule:nonzero;stroke:none"
             id="path22"
             inkscape:connector-curvature="0" /></g><g
           id="g24"
           transform="translate(115.0632,74.6937)"><path
             d="m 0,0 c -1.663,1.998 -4.864,8.145 -4.864,8.145 -0.941,1.479 -1.63,6.771 -1.63,6.771 C -6.351,23.822 4.34,28.265 4.34,28.265 L -9.792,43.522 c -19.774,-20.548 -33.624,-0.601 -33.624,-0.601 0,0 -14.876,-19.381 -33.43,1.086 L -92.301,28.83 c 0,0 11.623,-5.494 11.578,-13.844 0,0 -0.976,-5.665 -1.443,-6.882 0,0 -4.195,-7.35 -4.941,-8.099 0,0 -6.805,-10.44 -6.619,-18.258 0,0 0.653,-12.921 11.141,-19.569 0,0 23.167,-11.329 25.311,-12.781 0,0 11.7,-7.865 13.751,-13.67 0,0 7.072,10.76 13.218,13.634 7.787,3.643 25.337,12.745 25.337,12.745 10.617,6.95 11.547,19.633 11.547,19.633 C 6.714,-9.95 0,0 0,0"
             style="fill:#a2d724;fill-opacity:1;fill-rule:nonzero;stroke:none"
             id="path26"
             inkscape:connector-curvature="0" /></g><g
           id="g28"
           transform="translate(125.7615,114.7443)"><path
             d="m 0,0 c 0,0.825 -0.559,1.238 -1.675,1.238 -0.399,0 -0.733,-0.023 -1.003,-0.068 0.023,-0.603 0.036,-1.423 0.036,-2.46 0.208,-0.007 0.407,-0.01 0.598,-0.01 C -0.682,-1.3 0,-0.867 0,0 M 1.591,-4.879 H 0.587 c -0.332,0.995 -0.575,1.654 -0.727,1.977 -0.195,0.405 -0.415,0.667 -0.661,0.785 -0.194,0.094 -0.543,0.14 -1.046,0.14 -0.294,0 -0.556,-0.003 -0.785,-0.01 0,-1.12 0.021,-2.084 0.063,-2.892 h -0.968 c 0.052,1.075 0.078,2.261 0.078,3.558 0,1.22 -0.026,2.292 -0.078,3.214 h 0.734 c 0.155,0 0.353,0.005 0.592,0.016 0.239,0.01 0.513,0.015 0.822,0.015 1.519,0 2.278,-0.523 2.278,-1.57 0,-0.871 -0.426,-1.483 -1.279,-1.836 v -0.052 c 0.381,-0.115 0.69,-0.38 0.926,-0.796 0.197,-0.347 0.549,-1.196 1.055,-2.549"
             style="fill:#2e409b;fill-opacity:1;fill-rule:nonzero;stroke:none"
             id="path30"
             inkscape:connector-curvature="0" /></g><g
           id="g32"
           transform="translate(112.4846,74.0028)"><path
             d="m 0,0 c -1.56,1.867 -4.564,7.609 -4.564,7.609 -0.883,1.382 -1.529,6.325 -1.529,6.325 0.134,8.32 8.723,15.567 8.723,15.567 l 0.259,0.244 -0.156,0.211 -9.387,10.398 c -18.775,-17.33 -34.081,-0.257 -34.081,-0.257 0,0 -14.777,-17.068 -34.328,0.407 L -84.93,29.523 c 0,0 9.235,-7.723 9.193,-15.523 0,0 -0.916,-5.292 -1.354,-6.429 0,0 -3.936,-6.867 -4.636,-7.567 0,0 -6.385,-9.752 -6.21,-17.056 0,0 0.612,-12.071 10.453,-18.281 0,0 21.736,-10.584 23.747,-11.939 0,0 10.978,-7.348 12.902,-12.771 0,0 6.636,10.052 12.401,12.737 7.306,3.403 23.773,11.906 23.773,11.906 9.476,6.277 11.032,18.333 11.032,18.333 C 6.498,-9.302 0,0 0,0"
             style="fill:#2e409b;fill-opacity:1;fill-rule:nonzero;stroke:none"
             id="path34"
             inkscape:connector-curvature="0" /></g><g
           id="g36"
           transform="translate(71.7068,78.3162)"><path
             d="m 0,0 c -9.074,0 -16.429,1.996 -16.429,4.459 0,2.462 7.355,4.458 16.429,4.458 9.074,0 16.429,-1.996 16.429,-4.458 C 16.429,1.996 9.074,0 0,0 m 0,9.172 c -9.663,0 -17.496,-2.126 -17.496,-4.749 0,-2.622 7.833,-4.748 17.496,-4.748 9.663,0 17.496,2.126 17.496,4.748 0,2.623 -7.833,4.749 -17.496,4.749"
             style="fill:#a2d724;fill-opacity:1;fill-rule:nonzero;stroke:none"
             id="path38"
             inkscape:connector-curvature="0" /></g><g
           id="g40"
           transform="translate(51.5814,83.7784)"><path
             d="M 0,0 C -2.255,0 -4.084,0.496 -4.084,1.108 -4.084,1.72 -2.255,2.216 0,2.216 2.255,2.216 4.084,1.72 4.084,1.108 4.084,0.496 2.255,0 0,0 m 0,2.28 c -2.402,0 -4.349,-0.529 -4.349,-1.18 0,-0.652 1.947,-1.181 4.349,-1.181 2.402,0 4.349,0.529 4.349,1.181 0,0.651 -1.947,1.18 -4.349,1.18"
             style="fill:#a2d724;fill-opacity:1;fill-rule:nonzero;stroke:none"
             id="path42"
             inkscape:connector-curvature="0" /></g><g
           id="g44"
           transform="translate(51.5595,84.1291)"><path
             d="m 0,0 c -1.354,0 -2.452,0.298 -2.452,0.666 0,0.367 1.098,0.665 2.452,0.665 1.354,0 2.452,-0.298 2.452,-0.665 C 2.452,0.298 1.354,0 0,0 m 0,1.369 c -1.442,0 -2.612,-0.317 -2.612,-0.709 0,-0.391 1.17,-0.708 2.612,-0.708 1.442,0 2.612,0.317 2.612,0.708 0,0.392 -1.17,0.709 -2.612,0.709"
             style="fill:#a2d724;fill-opacity:1;fill-rule:nonzero;stroke:none"
             id="path46"
             inkscape:connector-curvature="0" /></g><g
           id="g48"
           transform="translate(50.9835,79.8365)"><path
             d="M 0,0 C -2.255,0 -4.084,0.496 -4.084,1.108 -4.084,1.72 -2.255,2.216 0,2.216 2.255,2.216 4.084,1.72 4.084,1.108 4.084,0.496 2.255,0 0,0 m 0,2.28 c -2.402,0 -4.349,-0.529 -4.349,-1.181 0,-0.651 1.947,-1.18 4.349,-1.18 2.402,0 4.349,0.529 4.349,1.18 C 4.349,1.751 2.402,2.28 0,2.28"
             style="fill:#a2d724;fill-opacity:1;fill-rule:nonzero;stroke:none"
             id="path50"
             inkscape:connector-curvature="0" /></g><g
           id="g52"
           transform="translate(50.9616,80.1872)"><path
             d="m 0,0 c -1.354,0 -2.452,0.298 -2.452,0.666 0,0.367 1.098,0.665 2.452,0.665 1.354,0 2.452,-0.298 2.452,-0.665 C 2.452,0.298 1.354,0 0,0 m 0,1.369 c -1.442,0 -2.612,-0.317 -2.612,-0.709 0,-0.391 1.17,-0.708 2.612,-0.708 1.442,0 2.612,0.317 2.612,0.708 0,0.392 -1.17,0.709 -2.612,0.709"
             style="fill:#a2d724;fill-opacity:1;fill-rule:nonzero;stroke:none"
             id="path54"
             inkscape:connector-curvature="0" /></g><g
           id="g56"
           transform="translate(61.1012,76.5562)"><path
             d="M 0,0 C -2.255,0 -4.084,0.496 -4.084,1.108 -4.084,1.72 -2.255,2.216 0,2.216 2.255,2.216 4.084,1.72 4.084,1.108 4.084,0.496 2.255,0 0,0 m 0,2.28 c -2.402,0 -4.349,-0.529 -4.349,-1.181 0,-0.651 1.947,-1.18 4.349,-1.18 2.402,0 4.349,0.529 4.349,1.18 C 4.349,1.751 2.402,2.28 0,2.28"
             style="fill:#a2d724;fill-opacity:1;fill-rule:nonzero;stroke:none"
             id="path58"
             inkscape:connector-curvature="0" /></g><g
           id="g60"
           transform="translate(61.0792,76.9069)"><path
             d="m 0,0 c -1.354,0 -2.452,0.298 -2.452,0.666 0,0.367 1.098,0.665 2.452,0.665 1.354,0 2.452,-0.298 2.452,-0.665 C 2.452,0.298 1.354,0 0,0 m 0,1.369 c -1.442,0 -2.612,-0.317 -2.612,-0.709 0,-0.391 1.17,-0.708 2.612,-0.708 1.442,0 2.612,0.317 2.612,0.708 0,0.392 -1.17,0.709 -2.612,0.709"
             style="fill:#a2d724;fill-opacity:1;fill-rule:nonzero;stroke:none"
             id="path62"
             inkscape:connector-curvature="0" /></g><g
           id="g64"
           transform="translate(74.8945,76.0029)"><path
             d="M 0,0 C -2.255,0 -4.084,0.496 -4.084,1.108 -4.084,1.72 -2.255,2.216 0,2.216 2.255,2.216 4.084,1.72 4.084,1.108 4.084,0.496 2.255,0 0,0 m 0,2.28 c -2.402,0 -4.349,-0.529 -4.349,-1.181 0,-0.651 1.947,-1.18 4.349,-1.18 2.402,0 4.349,0.529 4.349,1.18 C 4.349,1.751 2.402,2.28 0,2.28"
             style="fill:#a2d724;fill-opacity:1;fill-rule:nonzero;stroke:none"
             id="path66"
             inkscape:connector-curvature="0" /></g><g
           id="g68"
           transform="translate(74.8726,76.3536)"><path
             d="m 0,0 c -1.354,0 -2.452,0.298 -2.452,0.666 0,0.367 1.098,0.665 2.452,0.665 1.354,0 2.452,-0.298 2.452,-0.665 C 2.452,0.298 1.354,0 0,0 m 0,1.369 c -1.442,0 -2.612,-0.317 -2.612,-0.709 0,-0.391 1.17,-0.708 2.612,-0.708 1.442,0 2.612,0.317 2.612,0.708 0,0.392 -1.17,0.709 -2.612,0.709"
             style="fill:#a2d724;fill-opacity:1;fill-rule:nonzero;stroke:none"
             id="path70"
             inkscape:connector-curvature="0" /></g><g
           id="g72"
           transform="translate(87.6155,77.6525)"><path
             d="M 0,0 C -2.255,0 -4.084,0.496 -4.084,1.108 -4.084,1.72 -2.255,2.216 0,2.216 2.255,2.216 4.084,1.72 4.084,1.108 4.084,0.496 2.255,0 0,0 m 0,2.28 c -2.402,0 -4.349,-0.529 -4.349,-1.181 0,-0.651 1.947,-1.18 4.349,-1.18 2.402,0 4.349,0.529 4.349,1.18 C 4.349,1.751 2.402,2.28 0,2.28"
             style="fill:#a2d724;fill-opacity:1;fill-rule:nonzero;stroke:none"
             id="path74"
             inkscape:connector-curvature="0" /></g><g
           id="g76"
           transform="translate(87.5936,78.0032)"><path
             d="m 0,0 c -1.354,0 -2.452,0.298 -2.452,0.666 0,0.367 1.098,0.665 2.452,0.665 1.354,0 2.452,-0.298 2.452,-0.665 C 2.452,0.298 1.354,0 0,0 m 0,1.369 c -1.442,0 -2.612,-0.317 -2.612,-0.709 0,-0.391 1.17,-0.708 2.612,-0.708 1.442,0 2.612,0.317 2.612,0.708 0,0.392 -1.17,0.709 -2.612,0.709"
             style="fill:#a2d724;fill-opacity:1;fill-rule:nonzero;stroke:none"
             id="path78"
             inkscape:connector-curvature="0" /></g><g
           id="g80"
           transform="translate(92.6503,83.055)"><path
             d="M 0,0 C -2.255,0 -4.084,0.496 -4.084,1.108 -4.084,1.72 -2.255,2.216 0,2.216 2.255,2.216 4.084,1.72 4.084,1.108 4.084,0.496 2.255,0 0,0 m 0,2.28 c -2.402,0 -4.349,-0.529 -4.349,-1.18 0,-0.652 1.947,-1.181 4.349,-1.181 2.402,0 4.349,0.529 4.349,1.181 0,0.651 -1.947,1.18 -4.349,1.18"
             style="fill:#a2d724;fill-opacity:1;fill-rule:nonzero;stroke:none"
             id="path82"
             inkscape:connector-curvature="0" /></g><g
           id="g84"
           transform="translate(92.6284,83.4057)"><path
             d="m 0,0 c -1.354,0 -2.452,0.298 -2.452,0.666 0,0.367 1.098,0.665 2.452,0.665 1.354,0 2.452,-0.298 2.452,-0.665 C 2.452,0.298 1.354,0 0,0 m 0,1.369 c -1.442,0 -2.612,-0.317 -2.612,-0.709 0,-0.391 1.17,-0.708 2.612,-0.708 1.442,0 2.612,0.317 2.612,0.708 0,0.392 -1.17,0.709 -2.612,0.709"
             style="fill:#a2d724;fill-opacity:1;fill-rule:nonzero;stroke:none"
             id="path86"
             inkscape:connector-curvature="0" /></g><g
           id="g88"
           transform="translate(79.9637,86.8886)"><path
             d="M 0,0 C -2.255,0 -4.084,0.496 -4.084,1.108 -4.084,1.72 -2.255,2.216 0,2.216 2.255,2.216 4.084,1.72 4.084,1.108 4.084,0.496 2.255,0 0,0 m 0,2.28 c -2.402,0 -4.349,-0.529 -4.349,-1.181 0,-0.651 1.947,-1.18 4.349,-1.18 2.402,0 4.349,0.529 4.349,1.18 C 4.349,1.751 2.402,2.28 0,2.28"
             style="fill:#a2d724;fill-opacity:1;fill-rule:nonzero;stroke:none"
             id="path90"
             inkscape:connector-curvature="0" /></g><g
           id="g92"
           transform="translate(79.9418,87.2394)"><path
             d="m 0,0 c -1.354,0 -2.452,0.298 -2.452,0.666 0,0.367 1.098,0.665 2.452,0.665 1.354,0 2.452,-0.298 2.452,-0.665 C 2.452,0.298 1.354,0 0,0 m 0,1.369 c -1.442,0 -2.612,-0.317 -2.612,-0.709 0,-0.391 1.17,-0.708 2.612,-0.708 1.442,0 2.612,0.317 2.612,0.708 0,0.392 -1.17,0.709 -2.612,0.709"
             style="fill:#a2d724;fill-opacity:1;fill-rule:nonzero;stroke:none"
             id="path94"
             inkscape:connector-curvature="0" /></g><g
           id="g96"
           transform="translate(62.1049,86.7976)"><path
             d="M 0,0 C -2.255,0 -4.084,0.496 -4.084,1.108 -4.084,1.72 -2.255,2.216 0,2.216 2.255,2.216 4.084,1.72 4.084,1.108 4.084,0.496 2.255,0 0,0 m 0,2.28 c -2.402,0 -4.349,-0.529 -4.349,-1.18 0,-0.652 1.947,-1.181 4.349,-1.181 2.402,0 4.349,0.529 4.349,1.181 0,0.651 -1.947,1.18 -4.349,1.18"
             style="fill:#a2d724;fill-opacity:1;fill-rule:nonzero;stroke:none"
             id="path98"
             inkscape:connector-curvature="0" /></g><g
           id="g100"
           transform="translate(62.0829,87.1483)"><path
             d="m 0,0 c -1.354,0 -2.452,0.298 -2.452,0.666 0,0.367 1.098,0.665 2.452,0.665 1.354,0 2.452,-0.298 2.452,-0.665 C 2.452,0.298 1.354,0 0,0 m 0,1.369 c -1.442,0 -2.612,-0.317 -2.612,-0.709 0,-0.391 1.17,-0.708 2.612,-0.708 1.442,0 2.612,0.317 2.612,0.708 0,0.392 -1.17,0.709 -2.612,0.709"
             style="fill:#a2d724;fill-opacity:1;fill-rule:nonzero;stroke:none"
             id="path102"
             inkscape:connector-curvature="0" /></g><g
           id="g104"
           transform="translate(71.8633,83.7)"><path
             d="M 0,0 C -2.85,0 -5.16,0.627 -5.16,1.4 -5.16,2.174 -2.85,2.801 0,2.801 2.85,2.801 5.16,2.174 5.16,1.4 5.16,0.627 2.85,0 0,0 m 0,2.881 c -3.035,0 -5.495,-0.668 -5.495,-1.492 0,-0.823 2.46,-1.491 5.495,-1.491 3.035,0 5.495,0.668 5.495,1.491 0,0.824 -2.46,1.492 -5.495,1.492"
             style="fill:#a2d724;fill-opacity:1;fill-rule:nonzero;stroke:none"
             id="path106"
             inkscape:connector-curvature="0" /></g><g
           id="g108"
           transform="translate(71.8356,84.1432)"><path
             d="m 0,0 c -1.711,0 -3.099,0.377 -3.099,0.841 0,0.464 1.388,0.841 3.099,0.841 1.711,0 3.099,-0.377 3.099,-0.841 C 3.099,0.377 1.711,0 0,0 m 0,1.73 c -1.823,0 -3.3,-0.401 -3.3,-0.896 0,-0.494 1.477,-0.895 3.3,-0.895 1.823,0 3.3,0.401 3.3,0.895 C 3.3,1.329 1.823,1.73 0,1.73"
             style="fill:#a2d724;fill-opacity:1;fill-rule:nonzero;stroke:none"
             id="path110"
             inkscape:connector-curvature="0" /></g><g
           id="g112"
           transform="translate(71.6159,78.9574)"><path
             d="M 0,0 C -2.85,0 -5.16,0.627 -5.16,1.4 -5.16,2.174 -2.85,2.801 0,2.801 2.85,2.801 5.16,2.174 5.16,1.4 5.16,0.627 2.85,0 0,0 m 0,2.881 c -3.035,0 -5.495,-0.668 -5.495,-1.492 0,-0.823 2.46,-1.491 5.495,-1.491 3.035,0 5.495,0.668 5.495,1.491 0,0.824 -2.46,1.492 -5.495,1.492"
             style="fill:#a2d724;fill-opacity:1;fill-rule:nonzero;stroke:none"
             id="path114"
             inkscape:connector-curvature="0" /></g><g
           id="g116"
           transform="translate(71.5882,79.4005)"><path
             d="m 0,0 c -1.711,0 -3.099,0.377 -3.099,0.841 0,0.464 1.388,0.841 3.099,0.841 1.711,0 3.099,-0.377 3.099,-0.841 C 3.099,0.377 1.711,0 0,0 m 0,1.73 c -1.823,0 -3.3,-0.401 -3.3,-0.896 0,-0.494 1.477,-0.895 3.3,-0.895 1.823,0 3.3,0.401 3.3,0.895 C 3.3,1.329 1.823,1.73 0,1.73"
             style="fill:#a2d724;fill-opacity:1;fill-rule:nonzero;stroke:none"
             id="path118"
             inkscape:connector-curvature="0" /></g><g
           id="g120"
           transform="translate(61.5625,81.2421)"><path
             d="M 0,0 C -2.85,0 -5.16,0.627 -5.16,1.4 -5.16,2.174 -2.85,2.801 0,2.801 2.85,2.801 5.16,2.174 5.16,1.4 5.16,0.627 2.85,0 0,0 m 0,2.881 c -3.035,0 -5.495,-0.668 -5.495,-1.492 0,-0.823 2.46,-1.491 5.495,-1.491 3.035,0 5.495,0.668 5.495,1.491 0,0.824 -2.46,1.492 -5.495,1.492"
             style="fill:#a2d724;fill-opacity:1;fill-rule:nonzero;stroke:none"
             id="path122"
             inkscape:connector-curvature="0" /></g><g
           id="g124"
           transform="translate(61.5348,81.6852)"><path
             d="m 0,0 c -1.711,0 -3.099,0.377 -3.099,0.841 0,0.464 1.388,0.841 3.099,0.841 1.711,0 3.099,-0.377 3.099,-0.841 C 3.099,0.377 1.711,0 0,0 m 0,1.73 c -1.823,0 -3.3,-0.401 -3.3,-0.896 0,-0.494 1.477,-0.895 3.3,-0.895 1.823,0 3.3,0.401 3.3,0.895 C 3.3,1.329 1.823,1.73 0,1.73"
             style="fill:#a2d724;fill-opacity:1;fill-rule:nonzero;stroke:none"
             id="path126"
             inkscape:connector-curvature="0" /></g><g
           id="g128"
           transform="translate(81.615,81.3682)"><path
             d="M 0,0 C -2.85,0 -5.16,0.627 -5.16,1.4 -5.16,2.174 -2.85,2.801 0,2.801 2.85,2.801 5.16,2.174 5.16,1.4 5.16,0.627 2.85,0 0,0 m 0,2.881 c -3.035,0 -5.495,-0.668 -5.495,-1.492 0,-0.823 2.46,-1.491 5.495,-1.491 3.035,0 5.495,0.668 5.495,1.491 0,0.824 -2.46,1.492 -5.495,1.492"
             style="fill:#a2d724;fill-opacity:1;fill-rule:nonzero;stroke:none"
             id="path130"
             inkscape:connector-curvature="0" /></g><g
           id="g132"
           transform="translate(81.5872,81.8114)"><path
             d="m 0,0 c -1.711,0 -3.099,0.377 -3.099,0.841 0,0.464 1.388,0.841 3.099,0.841 1.711,0 3.099,-0.377 3.099,-0.841 C 3.099,0.377 1.711,0 0,0 m 0,1.73 c -1.823,0 -3.3,-0.401 -3.3,-0.896 0,-0.494 1.477,-0.895 3.3,-0.895 1.823,0 3.3,0.401 3.3,0.895 C 3.3,1.329 1.823,1.73 0,1.73"
             style="fill:#a2d724;fill-opacity:1;fill-rule:nonzero;stroke:none"
             id="path134"
             inkscape:connector-curvature="0" /></g><g
           id="g136"
           transform="translate(49.1715,61.9593)"><path
             d="M 0,0 C 0,0 0.264,5.773 0.226,6.452 L 0,9.169 c 0,0 -0.189,1.132 0.491,1.208 0.679,0.075 0.83,-1.095 0.754,-1.623 V 3.736 2.717 c 0,0 0.868,-0.453 1.019,-0.038 0,0 0.528,0.453 0,0.83 -0.528,0.377 -0.604,0.83 -0.038,1.509 0,0 1.811,1.963 2.981,1.661 0,0 1.208,-0.642 0.906,-1.585 0,0 -0.491,-1.736 -1.962,-1.924 0,0 -0.378,-1.472 0.415,-0.981 0,0 2.188,0.981 3.471,2.905 l 2.906,2.754 c 0,0 0.754,0.529 0.905,0.151 0.151,-0.377 0.264,-0.452 -0.264,-1.056 0,0 -3.585,-4.981 -4.679,-5.736 0,0 -3.434,-5.131 -3.773,-5.584 l -4.604,-7.622 c 0,0 -0.792,-2.302 -1.773,-1.811 0,0 -0.377,1.132 0.604,2.83 l 2.415,4.83 c 0,0 0.339,1.622 -1.321,1.094 l -2.717,-1.66 c 0,0 -1.639,-0.651 -2.113,0.566 0,0 0.302,1.358 0.981,1.584 0,0 -2,0.114 -1.056,0.83 l 2.037,2.038 c 0,0 0.679,0.491 0.83,-0.189 0,0 -0.037,-1.924 0.981,-0.679 z"
             style="fill:#ffffff;fill-opacity:1;fill-rule:nonzero;stroke:none"
             id="path138"
             inkscape:connector-curvature="0" /></g><g
           id="g140"
           transform="translate(98.4362,68.4008)"><path
             d="m 0,0 c 0,0 -2.165,0.25 -1.083,1.333 0,0 2.374,1.873 2.416,2.456 0,0 -0.334,1.999 -1.458,2.041 0,0 -1.749,0.25 -2.748,-1.791 0,0 -1.416,-2.207 -0.25,-2.248 0,0 0.916,-0.875 -0.083,-0.917 0,0 -1.583,1.5 -2.457,0.583 0,0 -1.366,-1.683 0.717,-2.016 l 2.928,-0.293 c 0,0 2.018,-0.356 -2.396,-0.189 0,0 -2.457,0.333 -2.582,1.832 0,0 0.042,3.873 -1.166,4.706 l -1.874,1.832 c 0,0 -0.958,0.375 -0.5,-0.541 0.459,-0.916 -0.041,-0.167 -0.041,-0.167 0,0 1.957,-2.332 1.79,-3.664 0,0 -0.291,-3.915 1.333,-4.706 0,0 1.791,-0.75 2.54,-1.041 0.75,-0.292 0.269,-0.466 -1.23,0.075 l -1.278,0.586 c 0,0 -0.157,-3.618 -2.281,-5.033 0,0 -1.499,-2.541 -1.707,-1.083 0,0 0.042,1.79 -1.333,-0.083 l -1.79,-2.499 c 0,0 -0.375,-0.416 0.041,-0.666 0,0 1.128,0.295 1.656,1.018 0,0 1.085,0.612 -0.861,-1.474 0,0 -1.252,-2.947 0.945,-2.641 0,0 2.224,-0.306 5.171,4.171 0,0 1.918,1.751 1.724,-0.306 -0.195,-2.058 -0.111,-4.337 -1.251,-6.033 0,0 -0.89,-2.308 -1.14,-3.365 0,0 -0.862,-2.474 1.334,-2.557 0,0 0.862,0.556 1.224,3.781 0,0 3.225,4.365 3.364,5.755 0,0 0.167,3.948 0.139,5.338 0,0 0.862,2.502 2.891,4.226 0,0 1.872,2.183 -0.704,3.58"
             style="fill:#ffffff;fill-opacity:1;fill-rule:nonzero;stroke:none"
             id="path142"
             inkscape:connector-curvature="0" /></g><g
           id="g144"
           transform="translate(88.7979,69.7142)"><path
             d="m 0,0 0.195,1.613 -3.754,4.448 c 0,0 -1.334,0.334 -0.611,-0.917 0,0 3.558,-5.394 4.17,-5.144"
             style="fill:#ffffff;fill-opacity:1;fill-rule:nonzero;stroke:none"
             id="path146"
             inkscape:connector-curvature="0" /></g><g
           id="g148"
           transform="translate(53.134,93.6972)"><path
             d="m 0,0 0.717,-2.003 0.455,0.163 c 0.171,0.062 0.29,0.115 0.359,0.162 0.09,0.059 0.157,0.131 0.201,0.213 0.045,0.083 0.063,0.199 0.056,0.349 C 1.781,-0.965 1.735,-0.774 1.651,-0.54 1.568,-0.306 1.483,-0.134 1.397,-0.023 1.311,0.087 1.219,0.164 1.119,0.208 1.02,0.251 0.909,0.265 0.786,0.248 0.694,0.237 0.523,0.187 0.274,0.098 Z M -0.793,0.293 0.322,0.692 C 0.574,0.782 0.773,0.832 0.918,0.84 1.114,0.851 1.299,0.813 1.474,0.725 1.648,0.637 1.803,0.508 1.938,0.339 2.073,0.169 2.191,-0.058 2.292,-0.341 2.382,-0.589 2.427,-0.815 2.43,-1.018 2.433,-1.265 2.389,-1.481 2.297,-1.667 2.228,-1.809 2.114,-1.94 1.954,-2.062 1.835,-2.153 1.663,-2.239 1.437,-2.319 L 0.288,-2.731 Z"
             style="fill:#ffffff;fill-opacity:1;fill-rule:nonzero;stroke:none"
             id="path150"
             inkscape:connector-curvature="0" /></g><g
           id="g152"
           transform="translate(56.4278,92.0046)"><path
             d="M 0,0 -0.82,3.104 1.482,3.713 1.62,3.188 -0.055,2.745 0.127,2.057 1.686,2.469 1.824,1.946 0.265,1.533 0.489,0.689 2.223,1.147 2.361,0.624 Z"
             style="fill:#ffffff;fill-opacity:1;fill-rule:nonzero;stroke:none"
             id="path154"
             inkscape:connector-curvature="0" /></g><g
           id="g156"
           transform="translate(60.4853,92.9654)"><path
             d="m 0,0 -0.6,3.303 0.667,0.121 0.6,-3.303 z"
             style="fill:#ffffff;fill-opacity:1;fill-rule:nonzero;stroke:none"
             id="path158"
             inkscape:connector-curvature="0" /></g><g
           id="g160"
           transform="translate(61.4692,93.1599)"><path
             d="M 0,0 -0.082,0.606 1.373,3.001 -0.177,2.791 -0.253,3.353 2.182,3.683 2.252,3.162 0.734,0.67 2.627,0.927 2.703,0.366 Z"
             style="fill:#ffffff;fill-opacity:1;fill-rule:nonzero;stroke:none"
             id="path162"
             inkscape:connector-curvature="0" /></g><g
           id="g164"
           transform="translate(65.3049,93.6153)"><path
             d="M 0,0 -0.212,2.781 -1.205,2.705 -1.248,3.272 1.412,3.474 1.455,2.908 0.464,2.832 0.676,0.051 Z"
             style="fill:#ffffff;fill-opacity:1;fill-rule:nonzero;stroke:none"
             id="path166"
             inkscape:connector-curvature="0" /></g><g
           id="g168"
           transform="translate(68.772,95.1103)"><path
             d="M 0,0 -0.489,1.235 -0.916,-0.019 Z M 1.276,-1.301 0.539,-1.317 0.23,-0.561 -1.112,-0.589 -1.373,-1.358 -2.091,-1.373 -0.856,2.011 -0.14,2.026 Z"
             style="fill:#ffffff;fill-opacity:1;fill-rule:nonzero;stroke:none"
             id="path170"
             inkscape:connector-curvature="0" /></g><g
           id="g172"
           transform="translate(71.1487,96.5518)"><path
             d="m 0,0 -0.038,-0.952 0.371,-0.015 c 0.267,-0.01 0.446,0 0.537,0.031 0.092,0.032 0.165,0.084 0.219,0.157 0.054,0.073 0.082,0.159 0.086,0.258 0.005,0.122 -0.027,0.224 -0.095,0.306 -0.069,0.082 -0.157,0.135 -0.266,0.16 -0.081,0.018 -0.243,0.032 -0.487,0.042 z M -0.788,-2.76 -0.655,0.594 0.432,0.551 C 0.844,0.535 1.112,0.507 1.236,0.469 1.426,0.411 1.583,0.295 1.705,0.121 1.828,-0.053 1.885,-0.273 1.874,-0.54 1.866,-0.746 1.821,-0.918 1.741,-1.055 1.66,-1.192 1.561,-1.298 1.443,-1.374 1.325,-1.45 1.205,-1.498 1.085,-1.519 0.922,-1.545 0.687,-1.552 0.381,-1.539 l -0.442,0.017 -0.05,-1.265 z"
             style="fill:#ffffff;fill-opacity:1;fill-rule:nonzero;stroke:none"
             id="path174"
             inkscape:connector-curvature="0" /></g><g
           id="g176"
           transform="translate(74.9913,94.8362)"><path
             d="M 0,0 -0.346,1.283 -0.912,0.085 Z m 1.12,-1.438 -0.734,0.068 -0.222,0.787 -1.336,0.123 -0.346,-0.733 -0.716,0.066 1.611,3.222 0.714,-0.066 z"
             style="fill:#ffffff;fill-opacity:1;fill-rule:nonzero;stroke:none"
             id="path178"
             inkscape:connector-curvature="0" /></g><g
           id="g180"
           transform="translate(76.4429,93.3418)"><path
             d="M 0,0 0.486,3.294 1.157,3.195 0.753,0.461 2.42,0.214 2.338,-0.345 Z"
             style="fill:#ffffff;fill-opacity:1;fill-rule:nonzero;stroke:none"
             id="path182"
             inkscape:connector-curvature="0" /></g><g
           id="g184"
           transform="translate(81.2274,93.8721)"><path
             d="M 0,0 -0.208,1.312 -0.898,0.18 Z m 0.961,-1.548 -0.723,0.145 -0.137,0.806 -1.315,0.264 -0.422,-0.693 -0.705,0.142 1.944,3.033 0.703,-0.141 z"
             style="fill:#ffffff;fill-opacity:1;fill-rule:nonzero;stroke:none"
             id="path186"
             inkscape:connector-curvature="0" /></g><g
           id="g188"
           transform="translate(83.8449,94.775)"><path
             d="m 0,0 -0.236,-0.923 0.359,-0.092 c 0.259,-0.066 0.437,-0.093 0.532,-0.082 0.096,0.012 0.178,0.048 0.247,0.108 0.067,0.06 0.114,0.138 0.139,0.233 0.03,0.119 0.02,0.225 -0.03,0.32 -0.05,0.095 -0.125,0.165 -0.227,0.212 -0.075,0.034 -0.23,0.082 -0.467,0.143 z M -1.348,-2.534 -0.516,0.718 0.538,0.449 C 0.937,0.347 1.193,0.264 1.306,0.2 1.48,0.104 1.609,-0.042 1.693,-0.238 1.777,-0.434 1.786,-0.661 1.72,-0.919 1.668,-1.119 1.589,-1.278 1.482,-1.395 1.375,-1.513 1.255,-1.596 1.124,-1.645 0.992,-1.694 0.866,-1.717 0.744,-1.712 0.579,-1.703 0.348,-1.661 0.051,-1.585 l -0.428,0.11 -0.314,-1.227 z"
             style="fill:#ffffff;fill-opacity:1;fill-rule:nonzero;stroke:none"
             id="path190"
             inkscape:connector-curvature="0" /></g><g
           id="g192"
           transform="translate(87.2455,92.3107)"><path
             d="M 0,0 -0.081,1.326 -0.877,0.266 Z M 0.809,-1.633 0.103,-1.419 0.044,-0.604 -1.24,-0.215 -1.727,-0.864 -2.415,-0.656 -0.189,2.178 0.497,1.97 Z"
             style="fill:#ffffff;fill-opacity:1;fill-rule:nonzero;stroke:none"
             id="path194"
             inkscape:connector-curvature="0" /></g><g
           id="g196"
           transform="translate(43.2431,92.8677)"><path
             d="M 0,0 -1.943,2.831 -1.371,3.224 0.572,0.392 Z"
             style="fill:#ffffff;fill-opacity:1;fill-rule:nonzero;stroke:none"
             id="path198"
             inkscape:connector-curvature="0" /></g><g
           id="g200"
           transform="translate(44.3179,93.6182)"><path
             d="M 0,0 -1.756,2.951 -1.177,3.296 1.204,2.044 0.031,4.015 0.584,4.344 2.341,1.393 1.743,1.038 -0.592,2.254 0.553,0.33 Z"
             style="fill:#ffffff;fill-opacity:1;fill-rule:nonzero;stroke:none"
             id="path202"
             inkscape:connector-curvature="0" /></g><g
           id="g204"
           transform="translate(46.5974,96.2502)"><path
             d="M 0,0 0.576,0.357 C 0.713,0.172 0.86,0.06 1.018,0.019 1.177,-0.021 1.35,0.006 1.539,0.099 1.74,0.198 1.87,0.315 1.929,0.449 1.989,0.584 1.991,0.709 1.935,0.822 1.899,0.895 1.847,0.946 1.779,0.976 1.711,1.006 1.615,1.014 1.489,0.999 1.404,0.988 1.216,0.951 0.925,0.888 0.551,0.806 0.267,0.792 0.073,0.846 -0.199,0.922 -0.396,1.082 -0.516,1.326 -0.593,1.483 -0.621,1.651 -0.6,1.832 c 0.021,0.18 0.098,0.347 0.23,0.501 0.133,0.154 0.317,0.29 0.554,0.407 C 0.57,2.931 0.903,2.989 1.182,2.916 1.461,2.843 1.675,2.668 1.824,2.39 L 1.216,2.055 C 1.112,2.201 0.999,2.286 0.877,2.312 0.755,2.338 0.606,2.308 0.431,2.222 0.251,2.133 0.127,2.026 0.062,1.901 0.02,1.821 0.018,1.741 0.058,1.661 0.094,1.588 0.155,1.541 0.242,1.52 0.353,1.492 0.578,1.518 0.915,1.596 1.253,1.674 1.513,1.71 1.696,1.706 1.878,1.701 2.043,1.653 2.19,1.561 2.338,1.469 2.46,1.325 2.555,1.131 2.643,0.954 2.675,0.765 2.654,0.563 2.631,0.36 2.549,0.177 2.407,0.014 2.265,-0.149 2.06,-0.297 1.792,-0.429 1.403,-0.621 1.06,-0.679 0.762,-0.602 0.465,-0.525 0.211,-0.325 0,0"
             style="fill:#ffffff;fill-opacity:1;fill-rule:nonzero;stroke:none"
             id="path206"
             inkscape:connector-curvature="0" /></g><g
           id="g208"
           transform="translate(50.792,96.9863)"><path
             d="M 0,0 -1.087,2.638 -2.029,2.25 -2.25,2.787 0.273,3.826 0.494,3.289 -0.446,2.902 0.641,0.264 Z"
             style="fill:#ffffff;fill-opacity:1;fill-rule:nonzero;stroke:none"
             id="path210"
             inkscape:connector-curvature="0" /></g><g
           id="g212"
           transform="translate(52.7459,97.7557)"><path
             d="M 0,0 -1.16,3.232 -0.508,3.466 0.653,0.234 Z"
             style="fill:#ffffff;fill-opacity:1;fill-rule:nonzero;stroke:none"
             id="path214"
             inkscape:connector-curvature="0" /></g><g
           id="g216"
           transform="translate(54.7222,98.4308)"><path
             d="M 0,0 -0.84,2.727 -1.814,2.427 -1.985,2.982 0.623,3.786 0.794,3.23 -0.178,2.931 0.663,0.204 Z"
             style="fill:#ffffff;fill-opacity:1;fill-rule:nonzero;stroke:none"
             id="path218"
             inkscape:connector-curvature="0" /></g><g
           id="g220"
           transform="translate(55.9408,102.3783)"><path
             d="m 0,0 0.675,0.159 0.426,-1.81 c 0.068,-0.288 0.12,-0.472 0.156,-0.553 0.062,-0.13 0.156,-0.224 0.285,-0.281 0.128,-0.058 0.286,-0.064 0.474,-0.02 0.192,0.045 0.327,0.119 0.406,0.22 0.079,0.101 0.115,0.211 0.108,0.33 -0.007,0.118 -0.042,0.31 -0.104,0.575 L 1.99,0.469 2.665,0.628 3.079,-1.128 C 3.173,-1.529 3.222,-1.817 3.224,-1.992 3.227,-2.166 3.193,-2.321 3.121,-2.459 3.05,-2.596 2.94,-2.718 2.792,-2.824 2.644,-2.93 2.437,-3.014 2.173,-3.076 1.854,-3.152 1.603,-3.172 1.42,-3.137 c -0.182,0.035 -0.335,0.1 -0.458,0.195 -0.124,0.096 -0.216,0.204 -0.276,0.326 -0.09,0.182 -0.178,0.459 -0.266,0.833 z"
             style="fill:#ffffff;fill-opacity:1;fill-rule:nonzero;stroke:none"
             id="path222"
             inkscape:connector-curvature="0" /></g><g
           id="g224"
           transform="translate(60.8195,99.9141)"><path
             d="M 0,0 -0.467,2.815 -1.472,2.648 -1.566,3.221 1.126,3.668 1.221,3.094 0.217,2.928 0.684,0.113 Z"
             style="fill:#ffffff;fill-opacity:1;fill-rule:nonzero;stroke:none"
             id="path226"
             inkscape:connector-curvature="0" /></g><g
           id="g228"
           transform="translate(63.2139,102.005)"><path
             d="m 0,0 c 0.038,-0.387 0.156,-0.672 0.353,-0.854 0.199,-0.182 0.435,-0.26 0.711,-0.233 0.275,0.026 0.491,0.147 0.648,0.363 0.157,0.215 0.216,0.521 0.178,0.917 C 1.852,0.585 1.737,0.869 1.547,1.045 1.357,1.221 1.119,1.295 0.835,1.267 0.55,1.24 0.33,1.12 0.175,0.908 0.02,0.696 -0.038,0.393 0,0 m -0.709,-0.092 c -0.034,0.348 -0.01,0.645 0.071,0.891 0.061,0.182 0.152,0.348 0.272,0.5 C -0.245,1.45 -0.107,1.567 0.046,1.65 0.251,1.76 0.492,1.829 0.77,1.857 1.274,1.905 1.692,1.789 2.025,1.506 2.357,1.223 2.551,0.803 2.605,0.246 2.659,-0.305 2.55,-0.751 2.281,-1.092 2.011,-1.433 1.625,-1.628 1.123,-1.677 c -0.508,-0.05 -0.927,0.066 -1.257,0.347 -0.33,0.281 -0.522,0.693 -0.575,1.238"
             style="fill:#ffffff;fill-opacity:1;fill-rule:nonzero;stroke:none"
             id="path230"
             inkscape:connector-curvature="0" /></g><g
           id="g232"
           transform="translate(68.5513,100.6117)"><path
             d="M 0,0 -0.008,2.853 -1.027,2.85 -1.029,3.431 1.7,3.439 1.701,2.858 0.685,2.855 0.693,0.002 Z"
             style="fill:#ffffff;fill-opacity:1;fill-rule:nonzero;stroke:none"
             id="path234"
             inkscape:connector-curvature="0" /></g><g
           id="g236"
           transform="translate(70.6578,100.6017)"><path
             d="M 0,0 0.196,3.429 2.738,3.283 2.705,2.703 0.855,2.809 0.812,2.049 2.533,1.95 2.5,1.373 0.778,1.471 0.725,0.538 2.641,0.429 2.608,-0.149 Z"
             style="fill:#ffffff;fill-opacity:1;fill-rule:nonzero;stroke:none"
             id="path238"
             inkscape:connector-curvature="0" /></g><g
           id="g240"
           transform="translate(76.1316,101.3948)"><path
             d="m 0,0 0.642,-0.292 c -0.147,-0.36 -0.351,-0.616 -0.611,-0.767 -0.26,-0.153 -0.572,-0.206 -0.938,-0.162 -0.453,0.055 -0.806,0.254 -1.061,0.599 -0.254,0.344 -0.348,0.785 -0.283,1.321 0.068,0.567 0.268,0.991 0.599,1.269 0.331,0.279 0.735,0.389 1.213,0.331 C -0.023,2.249 0.302,2.085 0.532,1.807 0.67,1.642 0.761,1.419 0.805,1.137 L 0.104,1.056 C 0.085,1.238 0.018,1.388 -0.098,1.505 -0.213,1.623 -0.363,1.693 -0.545,1.715 -0.798,1.746 -1.014,1.68 -1.194,1.517 -1.373,1.355 -1.487,1.071 -1.536,0.665 c -0.052,-0.431 -0.012,-0.748 0.121,-0.95 0.133,-0.201 0.324,-0.317 0.572,-0.347 0.182,-0.022 0.347,0.017 0.493,0.117 C -0.204,-0.414 -0.087,-0.243 0,0"
             style="fill:#ffffff;fill-opacity:1;fill-rule:nonzero;stroke:none"
             id="path242"
             inkscape:connector-curvature="0" /></g><g
           id="g244"
           transform="translate(77.1932,99.9731)"><path
             d="M 0,0 0.625,3.377 1.288,3.254 2.253,0.743 2.671,2.998 3.304,2.881 2.678,-0.496 1.994,-0.37 1.041,2.085 0.633,-0.118 Z"
             style="fill:#ffffff;fill-opacity:1;fill-rule:nonzero;stroke:none"
             id="path246"
             inkscape:connector-curvature="0" /></g><g
           id="g248"
           transform="translate(81.5125,100.8646)"><path
             d="m 0,0 c -0.094,-0.377 -0.079,-0.685 0.047,-0.923 0.125,-0.239 0.322,-0.391 0.59,-0.458 0.268,-0.067 0.512,-0.026 0.733,0.124 0.22,0.15 0.379,0.419 0.475,0.805 C 1.941,-0.07 1.928,0.235 1.808,0.465 1.688,0.695 1.489,0.845 1.212,0.914 0.934,0.983 0.687,0.944 0.47,0.796 0.252,0.649 0.096,0.383 0,0 m -0.699,0.151 c 0.085,0.339 0.207,0.611 0.366,0.816 0.119,0.15 0.26,0.277 0.425,0.379 0.165,0.102 0.333,0.166 0.505,0.192 0.23,0.036 0.48,0.02 0.751,-0.048 C 1.839,1.368 2.194,1.117 2.413,0.739 2.631,0.361 2.672,-0.1 2.537,-0.642 2.402,-1.18 2.151,-1.564 1.782,-1.795 1.414,-2.025 0.985,-2.079 0.496,-1.957 0,-1.833 -0.356,-1.583 -0.573,-1.208 -0.789,-0.833 -0.832,-0.38 -0.699,0.151"
             style="fill:#ffffff;fill-opacity:1;fill-rule:nonzero;stroke:none"
             id="path250"
             inkscape:connector-curvature="0" /></g><g
           id="g252"
           transform="translate(84.1256,98.4071)"><path
             d="M 0,0 1.005,3.254 1.668,3.049 0.833,0.348 2.48,-0.16 2.31,-0.713 Z"
             style="fill:#ffffff;fill-opacity:1;fill-rule:nonzero;stroke:none"
             id="path254"
             inkscape:connector-curvature="0" /></g><g
           id="g256"
           transform="translate(87.9926,98.9715)"><path
             d="m 0,0 c -0.134,-0.365 -0.15,-0.673 -0.051,-0.923 0.1,-0.25 0.28,-0.423 0.539,-0.518 0.26,-0.095 0.507,-0.079 0.742,0.047 0.235,0.126 0.42,0.376 0.557,0.75 0.135,0.37 0.155,0.675 0.06,0.916 C 1.751,0.513 1.569,0.683 1.301,0.781 1.032,0.879 0.782,0.866 0.551,0.742 0.32,0.619 0.136,0.371 0,0 m -0.679,0.223 c 0.12,0.329 0.27,0.587 0.45,0.774 0.133,0.137 0.287,0.248 0.462,0.332 0.174,0.084 0.349,0.13 0.523,0.138 C 0.988,1.478 1.235,1.436 1.498,1.34 1.973,1.166 2.299,0.88 2.477,0.48 2.654,0.081 2.647,-0.381 2.455,-0.905 2.264,-1.426 1.974,-1.782 1.583,-1.972 1.192,-2.163 0.76,-2.172 0.286,-1.998 c -0.479,0.175 -0.806,0.461 -0.983,0.858 -0.176,0.395 -0.17,0.85 0.018,1.363"
             style="fill:#ffffff;fill-opacity:1;fill-rule:nonzero;stroke:none"
             id="path258"
             inkscape:connector-curvature="0" /></g><g
           id="g260"
           transform="translate(92.2829,96.8024)"><path
             d="M 0,0 0.228,0.532 1.601,-0.056 1.063,-1.314 C 0.874,-1.386 0.632,-1.417 0.337,-1.407 c -0.296,0.01 -0.573,0.071 -0.833,0.182 -0.331,0.142 -0.589,0.334 -0.775,0.578 -0.186,0.244 -0.286,0.52 -0.299,0.831 -0.013,0.311 0.045,0.617 0.175,0.92 0.141,0.329 0.334,0.592 0.581,0.788 0.248,0.197 0.533,0.306 0.858,0.329 C 0.291,2.239 0.565,2.184 0.867,2.055 1.258,1.887 1.529,1.673 1.679,1.415 1.83,1.156 1.874,0.868 1.813,0.552 L 1.129,0.704 C 1.151,0.878 1.12,1.036 1.035,1.178 0.951,1.321 0.817,1.431 0.633,1.51 0.355,1.629 0.095,1.636 -0.144,1.529 -0.384,1.423 -0.579,1.196 -0.727,0.849 c -0.16,-0.375 -0.198,-0.691 -0.111,-0.95 0.086,-0.259 0.264,-0.446 0.534,-0.561 0.133,-0.057 0.279,-0.089 0.435,-0.094 0.157,-0.005 0.299,0.009 0.427,0.043 l 0.172,0.401 z"
             style="fill:#ffffff;fill-opacity:1;fill-rule:nonzero;stroke:none"
             id="path262"
             inkscape:connector-curvature="0" /></g><g
           id="g264"
           transform="translate(93.6919,94.7911)"><path
             d="M 0,0 1.459,3.109 2.086,2.814 0.628,-0.294 Z"
             style="fill:#ffffff;fill-opacity:1;fill-rule:nonzero;stroke:none"
             id="path266"
             inkscape:connector-curvature="0" /></g><g
           id="g268"
           transform="translate(99.4381,93.5947)"><path
             d="m 0,0 c -0.177,-0.347 -0.231,-0.65 -0.162,-0.91 0.069,-0.261 0.227,-0.453 0.473,-0.579 0.246,-0.126 0.494,-0.14 0.742,-0.043 0.249,0.097 0.463,0.323 0.643,0.677 0.18,0.351 0.236,0.652 0.17,0.903 C 1.8,0.298 1.64,0.489 1.386,0.619 1.131,0.749 0.881,0.766 0.637,0.671 0.392,0.575 0.179,0.352 0,0 m -0.647,0.303 c 0.159,0.312 0.339,0.55 0.539,0.714 0.15,0.12 0.316,0.212 0.499,0.274 C 0.575,1.354 0.753,1.378 0.927,1.365 1.159,1.348 1.399,1.277 1.648,1.15 2.099,0.92 2.388,0.597 2.517,0.179 2.645,-0.239 2.582,-0.697 2.328,-1.195 2.076,-1.688 1.745,-2.007 1.334,-2.149 0.923,-2.291 0.493,-2.247 0.044,-2.018 c -0.455,0.232 -0.746,0.555 -0.873,0.969 -0.127,0.415 -0.067,0.866 0.182,1.352"
             style="fill:#ffffff;fill-opacity:1;fill-rule:nonzero;stroke:none"
             id="path270"
             inkscape:connector-curvature="0" /></g><g
           id="g272"
           transform="translate(97.5711,94.1457)"><path
             d="m 0,0 0.542,-0.451 c -0.237,-0.309 -0.5,-0.502 -0.791,-0.58 -0.291,-0.077 -0.606,-0.047 -0.948,0.092 -0.422,0.172 -0.711,0.458 -0.865,0.857 -0.154,0.399 -0.129,0.85 0.075,1.35 0.215,0.529 0.52,0.885 0.912,1.066 0.393,0.181 0.812,0.181 1.257,0 C 0.571,2.175 0.841,1.931 0.99,1.602 1.079,1.408 1.108,1.168 1.076,0.884 L 0.379,0.991 C 0.408,1.171 0.383,1.334 0.303,1.478 0.222,1.622 0.097,1.729 -0.074,1.798 -0.309,1.895 -0.535,1.888 -0.751,1.778 -0.967,1.669 -1.152,1.425 -1.307,1.046 -1.47,0.644 -1.515,0.328 -1.44,0.099 c 0.076,-0.23 0.229,-0.392 0.46,-0.487 0.171,-0.069 0.34,-0.074 0.507,-0.016 C -0.306,-0.346 -0.148,-0.211 0,0"
             style="fill:#ffffff;fill-opacity:1;fill-rule:nonzero;stroke:none"
             id="path274"
             inkscape:connector-curvature="0" /></g><g
           id="g276"
           transform="translate(42.8936,47.3616)"><path
             d="m 0,0 -0.327,-0.456 0.178,-0.127 c 0.127,-0.091 0.219,-0.144 0.274,-0.158 0.055,-0.014 0.108,-0.013 0.158,0.006 0.05,0.018 0.092,0.051 0.126,0.098 0.042,0.059 0.059,0.119 0.052,0.182 -0.007,0.062 -0.033,0.117 -0.079,0.164 -0.034,0.035 -0.109,0.095 -0.225,0.179 z m -1.281,-1.101 1.152,1.605 0.52,-0.373 C 0.588,-0.011 0.71,-0.111 0.759,-0.17 0.834,-0.26 0.873,-0.368 0.877,-0.493 0.881,-0.618 0.838,-0.744 0.746,-0.872 0.675,-0.97 0.598,-1.041 0.514,-1.082 0.43,-1.124 0.347,-1.144 0.264,-1.142 c -0.082,10e-4 -0.157,0.016 -0.223,0.044 -0.088,0.04 -0.205,0.113 -0.352,0.218 l -0.211,0.152 -0.435,-0.606 z"
             style="fill:#9ad420;fill-opacity:1;fill-rule:nonzero;stroke:none"
             id="path278"
             inkscape:connector-curvature="0" /></g><g
           id="g280"
           transform="translate(43.9619,45.819)"><path
             d="m 0,0 c -0.122,-0.187 -0.171,-0.358 -0.148,-0.511 0.024,-0.153 0.102,-0.273 0.236,-0.36 0.133,-0.087 0.274,-0.11 0.421,-0.069 0.149,0.04 0.285,0.156 0.41,0.348 0.123,0.19 0.174,0.359 0.151,0.506 C 1.048,0.062 0.968,0.18 0.83,0.27 0.692,0.36 0.551,0.385 0.405,0.345 0.259,0.305 0.124,0.191 0,0 M -0.352,0.213 C -0.242,0.382 -0.125,0.507 0,0.588 0.093,0.648 0.193,0.69 0.302,0.715 0.411,0.74 0.515,0.743 0.613,0.725 0.745,0.701 0.878,0.646 1.013,0.558 1.257,0.399 1.403,0.197 1.45,-0.05 1.499,-0.297 1.435,-0.555 1.259,-0.824 1.085,-1.092 0.877,-1.254 0.633,-1.31 c -0.244,-0.056 -0.487,-0.005 -0.73,0.153 -0.246,0.16 -0.393,0.363 -0.441,0.607 -0.048,0.245 0.015,0.499 0.186,0.763"
             style="fill:#9ad420;fill-opacity:1;fill-rule:nonzero;stroke:none"
             id="path282"
             inkscape:connector-curvature="0" /></g><g
           id="g284"
           transform="translate(45.8626,44.7926)"><path
             d="m 0,0 0.254,-0.151 c 0.164,-0.097 0.271,-0.152 0.32,-0.162 0.05,-0.01 0.096,-0.005 0.139,0.015 0.044,0.02 0.081,0.056 0.111,0.107 0.033,0.057 0.046,0.112 0.036,0.166 C 0.85,0.028 0.82,0.076 0.77,0.118 0.745,0.138 0.662,0.19 0.523,0.272 L 0.256,0.431 Z M -0.925,-0.777 0.083,0.922 0.805,0.494 C 0.987,0.386 1.11,0.293 1.174,0.213 1.238,0.134 1.272,0.04 1.275,-0.067 1.278,-0.174 1.25,-0.278 1.19,-0.379 1.114,-0.506 1.014,-0.589 0.891,-0.628 0.766,-0.666 0.623,-0.652 0.461,-0.586 0.51,-0.673 0.543,-0.756 0.56,-0.837 0.578,-0.917 0.588,-1.048 0.592,-1.229 L 0.603,-1.683 0.193,-1.44 0.164,-0.923 C 0.154,-0.738 0.143,-0.62 0.131,-0.566 0.119,-0.512 0.099,-0.468 0.07,-0.434 0.041,-0.4 -0.013,-0.359 -0.092,-0.312 l -0.069,0.041 -0.42,-0.709 z"
             style="fill:#9ad420;fill-opacity:1;fill-rule:nonzero;stroke:none"
             id="path286"
             inkscape:connector-curvature="0" /></g><g
           id="g288"
           transform="translate(47.3153,42.6438)"><path
             d="M 0,0 0.914,1.733 1.267,1.547 0.508,0.108 1.385,-0.354 1.23,-0.649 Z"
             style="fill:#9ad420;fill-opacity:1;fill-rule:nonzero;stroke:none"
             id="path290"
             inkscape:connector-curvature="0" /></g><g
           id="g292"
           transform="translate(50.0689,42.1205)"><path
             d="M 0,0 0.074,0.778 -0.485,0.234 Z m 0.321,-1.023 -0.391,0.189 0.04,0.479 -0.711,0.343 -0.342,-0.332 -0.381,0.184 1.553,1.443 0.38,-0.184 z"
             style="fill:#9ad420;fill-opacity:1;fill-rule:nonzero;stroke:none"
             id="path294"
             inkscape:connector-curvature="0" /></g><g
           id="g296"
           transform="translate(52.6148,40.9273)"><path
             d="M 0,0 0.308,-0.264 C 0.17,-0.439 0.017,-0.548 -0.151,-0.591 c -0.168,-0.043 -0.349,-0.023 -0.544,0.06 -0.242,0.102 -0.406,0.269 -0.492,0.499 -0.086,0.231 -0.068,0.49 0.053,0.776 0.128,0.303 0.306,0.505 0.533,0.606 0.227,0.102 0.468,0.099 0.723,-0.009 C 0.344,1.247 0.498,1.105 0.581,0.914 0.631,0.802 0.646,0.664 0.626,0.501 L 0.225,0.567 C 0.244,0.671 0.23,0.764 0.185,0.848 0.14,0.931 0.068,0.993 -0.029,1.035 -0.164,1.092 -0.294,1.089 -0.419,1.028 -0.544,0.967 -0.652,0.828 -0.744,0.611 -0.841,0.381 -0.869,0.2 -0.827,0.067 c 0.041,-0.132 0.128,-0.227 0.261,-0.282 0.097,-0.042 0.194,-0.046 0.291,-0.014 C -0.179,-0.197 -0.087,-0.121 0,0"
             style="fill:#9ad420;fill-opacity:1;fill-rule:nonzero;stroke:none"
             id="path298"
             inkscape:connector-curvature="0" /></g><g
           id="g300"
           transform="translate(52.9836,39.9967)"><path
             d="M 0,0 0.72,1.839 1.092,1.694 0.371,-0.146 Z"
             style="fill:#9ad420;fill-opacity:1;fill-rule:nonzero;stroke:none"
             id="path302"
             inkscape:connector-curvature="0" /></g><g
           id="g304"
           transform="translate(53.6983,39.7146)"><path
             d="M 0,0 0.674,1.857 2.051,1.357 1.937,1.043 0.935,1.407 0.785,0.995 1.718,0.657 1.604,0.344 0.672,0.682 0.488,0.177 1.526,-0.2 1.412,-0.512 Z"
             style="fill:#9ad420;fill-opacity:1;fill-rule:nonzero;stroke:none"
             id="path306"
             inkscape:connector-curvature="0" /></g><g
           id="g308"
           transform="translate(55.4178,39.097)"><path
             d="M 0,0 0.603,1.881 0.973,1.762 1.34,0.259 1.743,1.516 2.095,1.403 1.492,-0.479 1.111,-0.357 0.746,1.113 0.353,-0.113 Z"
             style="fill:#9ad420;fill-opacity:1;fill-rule:nonzero;stroke:none"
             id="path310"
             inkscape:connector-curvature="0" /></g><g
           id="g312"
           transform="translate(58.7107,38.864)"><path
             d="m 0,0 0.34,-0.222 c -0.115,-0.191 -0.253,-0.319 -0.414,-0.383 -0.161,-0.064 -0.343,-0.068 -0.547,-0.011 -0.253,0.07 -0.437,0.214 -0.552,0.431 -0.115,0.218 -0.13,0.477 -0.047,0.777 0.088,0.317 0.237,0.54 0.45,0.67 0.212,0.13 0.451,0.158 0.718,0.084 C 0.181,1.281 0.351,1.16 0.458,0.982 0.522,0.877 0.555,0.742 0.556,0.577 L 0.15,0.592 C 0.155,0.697 0.13,0.788 0.074,0.865 0.018,0.942 -0.06,0.994 -0.163,1.023 -0.304,1.062 -0.432,1.043 -0.548,0.966 -0.664,0.889 -0.754,0.737 -0.816,0.51 -0.883,0.27 -0.887,0.086 -0.829,-0.04 c 0.058,-0.126 0.156,-0.208 0.295,-0.247 0.102,-0.028 0.199,-0.02 0.291,0.025 C -0.152,-0.218 -0.071,-0.131 0,0"
             style="fill:#9ad420;fill-opacity:1;fill-rule:nonzero;stroke:none"
             id="path314"
             inkscape:connector-curvature="0" /></g><g
           id="g316"
           transform="translate(59.1994,37.9889)"><path
             d="M 0,0 0.474,1.918 0.862,1.822 0.387,-0.096 Z"
             style="fill:#9ad420;fill-opacity:1;fill-rule:nonzero;stroke:none"
             id="path318"
             inkscape:connector-curvature="0" /></g><g
           id="g320"
           transform="translate(61.1307,38.343)"><path
             d="M 0,0 -0.11,0.774 -0.527,0.115 Z m 0.551,-0.92 -0.423,0.092 -0.074,0.475 -0.771,0.168 -0.255,-0.403 -0.413,0.09 1.171,1.766 0.412,-0.089 z"
             style="fill:#9ad420;fill-opacity:1;fill-rule:nonzero;stroke:none"
             id="path322"
             inkscape:connector-curvature="0" /></g><g
           id="g324"
           transform="translate(61.9367,37.7696)"><path
             d="M 0,0 0.372,-0.07 0.322,-0.336 C 0.302,-0.444 0.277,-0.527 0.247,-0.586 0.216,-0.645 0.171,-0.694 0.11,-0.734 0.049,-0.773 -0.024,-0.8 -0.109,-0.813 l -0.044,0.167 c 0.08,0.011 0.14,0.035 0.179,0.072 0.04,0.037 0.068,0.094 0.084,0.168 l -0.18,0.034 z"
             style="fill:#9ad420;fill-opacity:1;fill-rule:nonzero;stroke:none"
             id="path326"
             inkscape:connector-curvature="0" /></g><g
           id="g328"
           transform="translate(63.8405,37.0612)"><path
             d="M 0,0 0.234,1.625 -0.346,1.708 -0.298,2.039 1.256,1.815 1.208,1.484 0.629,1.568 0.395,-0.057 Z"
             style="fill:#9ad420;fill-opacity:1;fill-rule:nonzero;stroke:none"
             id="path330"
             inkscape:connector-curvature="0" /></g><g
           id="g332"
           transform="translate(65.1057,36.8859)"><path
             d="M 0,0 0.206,1.965 1.663,1.812 1.628,1.479 0.568,1.591 0.522,1.155 1.508,1.052 1.474,0.721 0.487,0.824 0.431,0.29 1.529,0.174 1.494,-0.157 Z"
             style="fill:#9ad420;fill-opacity:1;fill-rule:nonzero;stroke:none"
             id="path334"
             inkscape:connector-curvature="0" /></g><g
           id="g336"
           transform="translate(68.2855,37.3434)"><path
             d="M 0,0 0.379,-0.147 C 0.306,-0.358 0.197,-0.512 0.053,-0.608 -0.091,-0.704 -0.269,-0.745 -0.48,-0.731 c -0.262,0.016 -0.472,0.119 -0.629,0.308 -0.158,0.189 -0.227,0.439 -0.207,0.749 0.02,0.328 0.121,0.578 0.302,0.749 0.18,0.171 0.409,0.248 0.685,0.231 C -0.088,1.291 0.104,1.207 0.245,1.055 0.33,0.966 0.39,0.84 0.424,0.68 L 0.025,0.61 C 0.008,0.714 -0.036,0.797 -0.106,0.861 -0.177,0.925 -0.265,0.96 -0.371,0.967 -0.517,0.976 -0.638,0.931 -0.736,0.831 -0.834,0.732 -0.89,0.565 -0.904,0.33 c -0.016,-0.249 0.018,-0.429 0.101,-0.541 0.083,-0.111 0.196,-0.171 0.34,-0.18 0.106,-0.007 0.199,0.021 0.279,0.084 C -0.103,-0.245 -0.042,-0.142 0,0"
             style="fill:#9ad420;fill-opacity:1;fill-rule:nonzero;stroke:none"
             id="path338"
             inkscape:connector-curvature="0" /></g><g
           id="g340"
           transform="translate(69.0268,36.5798)"><path
             d="M 0,0 0.035,1.975 0.423,1.968 1.208,0.635 1.231,1.954 1.602,1.947 1.567,-0.028 1.167,-0.021 0.393,1.282 0.37,-0.007 Z"
             style="fill:#9ad420;fill-opacity:1;fill-rule:nonzero;stroke:none"
             id="path342"
             inkscape:connector-curvature="0" /></g><g
           id="g344"
           transform="translate(71.3718,37.5506)"><path
             d="m 0,0 c 0.007,-0.223 0.063,-0.391 0.169,-0.504 0.107,-0.112 0.24,-0.166 0.399,-0.162 0.159,0.005 0.288,0.066 0.386,0.183 0.099,0.118 0.145,0.291 0.138,0.52 C 1.086,0.263 1.031,0.431 0.929,0.539 0.827,0.648 0.693,0.699 0.529,0.695 0.364,0.69 0.233,0.63 0.136,0.514 0.039,0.398 -0.006,0.227 0,0 m -0.41,-0.025 c -0.006,0.201 0.019,0.37 0.075,0.509 0.042,0.102 0.101,0.194 0.176,0.276 C -0.083,0.842 0,0.903 0.091,0.945 0.213,1 0.354,1.031 0.515,1.035 0.806,1.044 1.041,0.96 1.221,0.785 1.401,0.609 1.496,0.361 1.505,0.039 1.514,-0.279 1.435,-0.531 1.266,-0.716 1.098,-0.901 0.869,-0.998 0.579,-1.006 0.286,-1.015 0.05,-0.932 -0.129,-0.758 -0.308,-0.584 -0.401,-0.34 -0.41,-0.025"
             style="fill:#9ad420;fill-opacity:1;fill-rule:nonzero;stroke:none"
             id="path346"
             inkscape:connector-curvature="0" /></g><g
           id="g348"
           transform="translate(73.2781,36.6313)"><path
             d="M 0,0 -0.14,1.954 0.257,1.983 0.374,0.361 1.363,0.432 1.387,0.1 Z"
             style="fill:#9ad420;fill-opacity:1;fill-rule:nonzero;stroke:none"
             id="path350"
             inkscape:connector-curvature="0" /></g><g
           id="g352"
           transform="translate(75.219,37.7806)"><path
             d="m 0,0 c 0.025,-0.222 0.096,-0.385 0.212,-0.488 0.116,-0.103 0.253,-0.145 0.411,-0.127 0.158,0.018 0.281,0.09 0.369,0.216 C 1.08,-0.274 1.111,-0.097 1.085,0.13 1.059,0.355 0.991,0.518 0.879,0.617 0.768,0.716 0.63,0.756 0.467,0.737 0.304,0.719 0.179,0.647 0.091,0.524 0.004,0.4 -0.026,0.226 0,0 m -0.407,-0.06 c -0.023,0.2 -0.012,0.371 0.032,0.513 0.033,0.105 0.083,0.202 0.152,0.29 C -0.155,0.832 -0.078,0.9 0.01,0.949 0.126,1.015 0.264,1.057 0.424,1.076 0.713,1.109 0.955,1.046 1.149,0.887 1.343,0.727 1.459,0.488 1.496,0.168 1.532,-0.149 1.475,-0.407 1.323,-0.605 1.171,-0.804 0.951,-0.92 0.663,-0.953 c -0.292,-0.034 -0.534,0.029 -0.727,0.187 -0.193,0.158 -0.307,0.393 -0.343,0.706"
             style="fill:#9ad420;fill-opacity:1;fill-rule:nonzero;stroke:none"
             id="path354"
             inkscape:connector-curvature="0" /></g><g
           id="g356"
           transform="translate(77.968,37.8861)"><path
             d="M 0,0 -0.054,0.329 0.795,0.467 0.921,-0.31 C 0.852,-0.403 0.744,-0.493 0.598,-0.579 0.451,-0.665 0.297,-0.722 0.137,-0.748 c -0.204,-0.033 -0.389,-0.019 -0.554,0.042 -0.166,0.061 -0.3,0.164 -0.402,0.311 -0.102,0.147 -0.169,0.313 -0.199,0.5 -0.033,0.204 -0.02,0.391 0.039,0.563 0.06,0.171 0.164,0.313 0.315,0.424 0.114,0.085 0.264,0.143 0.451,0.173 0.242,0.039 0.439,0.02 0.592,-0.06 C 0.531,1.126 0.642,1 0.71,0.827 L 0.331,0.69 C 0.288,0.781 0.224,0.849 0.139,0.892 0.054,0.935 -0.045,0.947 -0.158,0.928 -0.331,0.9 -0.458,0.824 -0.542,0.698 -0.626,0.572 -0.65,0.402 -0.615,0.188 c 0.038,-0.231 0.117,-0.397 0.239,-0.496 0.122,-0.099 0.266,-0.135 0.433,-0.107 0.082,0.013 0.162,0.043 0.24,0.089 0.077,0.046 0.142,0.096 0.194,0.152 l -0.04,0.247 z"
             style="fill:#9ad420;fill-opacity:1;fill-rule:nonzero;stroke:none"
             id="path358"
             inkscape:connector-curvature="0" /></g><g
           id="g360"
           transform="translate(79.2939,37.3839)"><path
             d="M 0,0 -0.379,1.939 0.012,2.015 0.391,0.076 Z"
             style="fill:#9ad420;fill-opacity:1;fill-rule:nonzero;stroke:none"
             id="path362"
             inkscape:connector-curvature="0" /></g><g
           id="g364"
           transform="translate(80.9119,38.5238)"><path
             d="m 0,0 -0.427,0.655 -0.099,-0.774 z m 0.888,-0.601 -0.423,-0.095 -0.267,0.4 -0.77,-0.174 -0.06,-0.474 -0.413,-0.093 0.315,2.096 0.412,0.093 z"
             style="fill:#9ad420;fill-opacity:1;fill-rule:nonzero;stroke:none"
             id="path366"
             inkscape:connector-curvature="0" /></g><g
           id="g368"
           transform="translate(83.076,38.2668)"><path
             d="M 0,0 -0.225,0.801 -1.231,1.707 -0.78,1.833 -0.122,1.206 0.106,2.081 0.548,2.206 0.159,0.905 0.383,0.107 Z"
             style="fill:#9ad420;fill-opacity:1;fill-rule:nonzero;stroke:none"
             id="path370"
             inkscape:connector-curvature="0" /></g><g
           id="g372"
           transform="translate(85.0085,38.8386)"><path
             d="M 0,0 -0.629,1.872 0.759,2.339 0.866,2.022 -0.144,1.683 -0.005,1.268 0.935,1.583 1.041,1.268 0.101,0.952 0.272,0.443 1.318,0.794 1.424,0.479 Z"
             style="fill:#9ad420;fill-opacity:1;fill-rule:nonzero;stroke:none"
             id="path374"
             inkscape:connector-curvature="0" /></g><g
           id="g376"
           transform="translate(86.5262,41.1003)"><path
             d="m 0,0 0.462,-1.224 0.279,0.105 c 0.104,0.039 0.177,0.074 0.219,0.103 0.054,0.038 0.095,0.082 0.121,0.133 0.026,0.052 0.037,0.123 0.03,0.216 C 1.106,-0.575 1.076,-0.458 1.022,-0.315 0.968,-0.172 0.914,-0.067 0.86,0 0.806,0.067 0.748,0.114 0.686,0.139 0.624,0.165 0.556,0.172 0.481,0.161 0.424,0.153 0.32,0.121 0.168,0.063 Z M -0.491,0.172 0.191,0.429 C 0.345,0.487 0.466,0.52 0.556,0.527 0.676,0.535 0.791,0.514 0.899,0.462 1.007,0.409 1.103,0.332 1.188,0.229 1.273,0.126 1.349,-0.012 1.414,-0.185 1.471,-0.337 1.502,-0.476 1.505,-0.6 1.51,-0.752 1.485,-0.886 1.431,-1.001 1.39,-1.089 1.321,-1.171 1.224,-1.248 1.152,-1.305 1.046,-1.359 0.909,-1.411 L 0.206,-1.676 Z"
             style="fill:#9ad420;fill-opacity:1;fill-rule:nonzero;stroke:none"
             id="path378"
             inkscape:connector-curvature="0" /></g><g
           id="g380"
           transform="translate(87.8145,41.9496)"><path
             d="m 0,0 0.368,0.155 0.414,-0.987 c 0.066,-0.156 0.113,-0.256 0.142,-0.298 0.047,-0.068 0.109,-0.112 0.188,-0.133 0.078,-0.02 0.168,-0.008 0.271,0.035 0.104,0.044 0.174,0.098 0.209,0.163 0.035,0.065 0.045,0.131 0.03,0.197 -0.015,0.067 -0.054,0.172 -0.114,0.316 L 1.084,0.456 1.452,0.61 1.854,-0.346 C 1.946,-0.565 2.001,-0.723 2.019,-0.822 2.037,-0.921 2.033,-1.012 2.005,-1.097 1.978,-1.181 1.927,-1.261 1.853,-1.335 1.779,-1.41 1.67,-1.477 1.526,-1.538 1.352,-1.611 1.212,-1.646 1.105,-1.644 0.999,-1.642 0.906,-1.619 0.827,-1.577 0.747,-1.535 0.685,-1.482 0.638,-1.418 0.57,-1.324 0.494,-1.175 0.408,-0.971 Z"
             style="fill:#9ad420;fill-opacity:1;fill-rule:nonzero;stroke:none"
             id="path382"
             inkscape:connector-curvature="0" /></g><g
           id="g384"
           transform="translate(91.245,42.093)"><path
             d="m 0,0 0.402,0.051 c 0.037,-0.22 0.015,-0.407 -0.066,-0.56 -0.081,-0.153 -0.218,-0.274 -0.411,-0.363 -0.237,-0.11 -0.471,-0.12 -0.699,-0.028 -0.229,0.092 -0.408,0.278 -0.539,0.561 -0.138,0.298 -0.169,0.565 -0.091,0.802 0.078,0.236 0.242,0.413 0.493,0.529 0.219,0.101 0.428,0.119 0.624,0.053 C -0.17,1.006 -0.057,0.924 0.05,0.8 L -0.269,0.548 C -0.333,0.631 -0.411,0.684 -0.504,0.707 -0.595,0.73 -0.69,0.719 -0.786,0.674 -0.919,0.612 -1.005,0.515 -1.043,0.381 -1.082,0.247 -1.052,0.074 -0.953,-0.14 c 0.105,-0.226 0.221,-0.369 0.347,-0.427 0.126,-0.059 0.254,-0.058 0.385,0.003 0.096,0.044 0.164,0.113 0.205,0.206 C 0.025,-0.265 0.03,-0.145 0,0"
             style="fill:#9ad420;fill-opacity:1;fill-rule:nonzero;stroke:none"
             id="path386"
             inkscape:connector-curvature="0" /></g><g
           id="g388"
           transform="translate(92.7751,42.9094)"><path
             d="m 0,0 -0.574,0.531 0.093,-0.774 z M 1.008,-0.366 0.621,-0.562 0.265,-0.239 -0.44,-0.595 -0.383,-1.07 -0.761,-1.26 -0.966,0.849 -0.589,1.04 Z"
             style="fill:#9ad420;fill-opacity:1;fill-rule:nonzero;stroke:none"
             id="path390"
             inkscape:connector-curvature="0" /></g><g
           id="g392"
           transform="translate(94.7142,43.8819)"><path
             d="M 0,0 0.398,0.078 C 0.449,-0.139 0.44,-0.327 0.369,-0.485 0.299,-0.643 0.171,-0.773 -0.016,-0.875 -0.245,-1.001 -0.477,-1.026 -0.712,-0.95 c -0.234,0.076 -0.426,0.25 -0.575,0.523 -0.158,0.288 -0.206,0.553 -0.145,0.794 0.061,0.241 0.213,0.428 0.456,0.561 0.212,0.116 0.418,0.148 0.619,0.095 0.12,-0.031 0.237,-0.104 0.353,-0.222 L -0.305,0.529 C -0.375,0.608 -0.457,0.655 -0.55,0.671 -0.644,0.688 -0.737,0.67 -0.83,0.619 -0.958,0.549 -1.037,0.446 -1.067,0.31 c -0.029,-0.136 0.013,-0.307 0.126,-0.514 0.12,-0.219 0.245,-0.353 0.375,-0.403 0.129,-0.05 0.257,-0.04 0.383,0.029 0.093,0.051 0.157,0.124 0.192,0.22 C 0.043,-0.262 0.04,-0.143 0,0"
             style="fill:#9ad420;fill-opacity:1;fill-rule:nonzero;stroke:none"
             id="path394"
             inkscape:connector-curvature="0" /></g><g
           id="g396"
           transform="translate(95.6764,43.5936)"><path
             d="M 0,0 -0.988,1.711 -0.642,1.91 0.345,0.2 Z"
             style="fill:#9ad420;fill-opacity:1;fill-rule:nonzero;stroke:none"
             id="path398"
             inkscape:connector-curvature="0" /></g><g
           id="g400"
           transform="translate(96.1136,44.9926)"><path
             d="m 0,0 c 0.116,-0.191 0.248,-0.309 0.397,-0.354 0.148,-0.045 0.29,-0.026 0.426,0.056 0.136,0.083 0.217,0.2 0.245,0.351 C 1.095,0.204 1.05,0.377 0.931,0.573 0.813,0.766 0.683,0.884 0.54,0.928 0.398,0.972 0.256,0.95 0.116,0.865 -0.025,0.78 -0.109,0.663 -0.136,0.514 -0.164,0.366 -0.118,0.194 0,0 m -0.344,-0.225 c -0.105,0.172 -0.167,0.332 -0.186,0.48 -0.014,0.109 -0.009,0.218 0.016,0.327 0.025,0.108 0.067,0.203 0.126,0.284 0.078,0.109 0.185,0.205 0.323,0.288 C 0.184,1.306 0.43,1.35 0.673,1.286 0.916,1.222 1.121,1.053 1.288,0.779 1.454,0.506 1.509,0.248 1.455,0.004 1.4,-0.24 1.249,-0.437 1.001,-0.588 0.75,-0.741 0.504,-0.786 0.263,-0.723 c -0.242,0.064 -0.444,0.229 -0.607,0.498"
             style="fill:#9ad420;fill-opacity:1;fill-rule:nonzero;stroke:none"
             id="path402"
             inkscape:connector-curvature="0" /></g><g
           id="g404"
           transform="translate(98.1663,45.0927)"><path
             d="M 0,0 -1.078,1.655 -0.754,1.867 0.644,1.203 -0.076,2.308 0.234,2.51 1.313,0.856 0.978,0.637 -0.393,1.282 0.311,0.202 Z"
             style="fill:#9ad420;fill-opacity:1;fill-rule:nonzero;stroke:none"
             id="path406"
             inkscape:connector-curvature="0" /></g><g
           id="g408"
           transform="translate(48.5554,37.5609)"><path
             d="M 0,0 0.903,1.793 2.233,1.124 2.08,0.82 1.113,1.307 0.912,0.91 1.812,0.456 1.66,0.154 0.76,0.608 0.514,0.12 1.516,-0.385 1.364,-0.687 Z"
             style="fill:#9ad420;fill-opacity:1;fill-rule:nonzero;stroke:none"
             id="path410"
             inkscape:connector-curvature="0" /></g><g
           id="g412"
           transform="translate(50.2159,36.7312)"><path
             d="M 0,0 0.837,1.825 1.196,1.66 1.383,0.099 1.943,1.317 2.285,1.16 1.448,-0.665 l -0.37,0.17 -0.19,1.528 -0.546,-1.19 z"
             style="fill:#9ad420;fill-opacity:1;fill-rule:nonzero;stroke:none"
             id="path414"
             inkscape:connector-curvature="0" /></g><g
           id="g416"
           transform="translate(53.7453,37.0074)"><path
             d="M 0,0 -0.171,-0.432 0.076,-0.53 c 0.147,-0.058 0.239,-0.092 0.276,-0.101 0.068,-0.019 0.127,-0.016 0.179,0.006 0.051,0.022 0.089,0.063 0.113,0.124 0.023,0.057 0.026,0.111 0.008,0.159 -0.018,0.049 -0.056,0.089 -0.116,0.122 -0.036,0.019 -0.142,0.064 -0.32,0.134 z m -0.294,-0.742 -0.198,-0.499 0.349,-0.138 c 0.135,-0.054 0.223,-0.085 0.263,-0.092 0.06,-0.012 0.115,-0.005 0.166,0.021 0.051,0.025 0.089,0.071 0.116,0.137 0.022,0.056 0.027,0.109 0.016,0.159 -0.012,0.05 -0.04,0.094 -0.085,0.132 -0.044,0.038 -0.151,0.091 -0.323,0.159 z M -0.254,0.46 0.492,0.164 C 0.64,0.106 0.748,0.056 0.816,0.015 0.883,-0.026 0.938,-0.078 0.98,-0.139 1.021,-0.201 1.049,-0.272 1.061,-0.352 1.074,-0.432 1.064,-0.513 1.032,-0.593 0.997,-0.68 0.942,-0.752 0.866,-0.806 0.79,-0.86 0.704,-0.89 0.609,-0.894 0.709,-0.972 0.774,-1.063 0.804,-1.167 0.834,-1.271 0.827,-1.377 0.784,-1.485 0.751,-1.57 0.698,-1.645 0.627,-1.709 0.556,-1.774 0.476,-1.816 0.389,-1.837 0.302,-1.858 0.206,-1.854 0.101,-1.826 c -0.065,0.018 -0.219,0.074 -0.459,0.168 l -0.636,0.252 z"
             style="fill:#9ad420;fill-opacity:1;fill-rule:nonzero;stroke:none"
             id="path418"
             inkscape:connector-curvature="0" /></g><g
           id="g420"
           transform="translate(54.6247,34.8679)"><path
             d="M 0,0 0.67,1.893 2.073,1.396 1.96,1.076 0.939,1.437 0.79,1.018 1.74,0.681 1.628,0.362 0.677,0.699 0.495,0.184 1.553,-0.19 1.44,-0.509 Z"
             style="fill:#9ad420;fill-opacity:1;fill-rule:nonzero;stroke:none"
             id="path422"
             inkscape:connector-curvature="0" /></g><g
           id="g424"
           transform="translate(56.3757,34.2548)"><path
             d="M 0,0 0.598,1.917 0.974,1.799 1.36,0.275 1.759,1.554 2.119,1.442 1.521,-0.475 1.132,-0.353 0.749,1.138 0.359,-0.112 Z"
             style="fill:#9ad420;fill-opacity:1;fill-rule:nonzero;stroke:none"
             id="path426"
             inkscape:connector-curvature="0" /></g><g
           id="g428"
           transform="translate(58.2915,33.666)"><path
             d="M 0,0 0.524,1.938 1.961,1.55 1.872,1.222 0.827,1.505 0.71,1.075 1.684,0.812 1.596,0.485 0.622,0.748 0.48,0.221 1.562,-0.072 1.474,-0.398 Z"
             style="fill:#9ad420;fill-opacity:1;fill-rule:nonzero;stroke:none"
             id="path430"
             inkscape:connector-curvature="0" /></g><g
           id="g432"
           transform="translate(60.0864,33.1899)"><path
             d="M 0,0 0.454,1.956 1.795,1.645 1.718,1.314 0.772,1.533 0.665,1.07 1.481,0.881 1.404,0.55 0.588,0.74 0.395,-0.092 Z"
             style="fill:#9ad420;fill-opacity:1;fill-rule:nonzero;stroke:none"
             id="path434"
             inkscape:connector-curvature="0" /></g><g
           id="g436"
           transform="translate(61.7346,32.8185)"><path
             d="M 0,0 0.404,1.967 0.801,1.885 0.397,-0.082 Z"
             style="fill:#9ad420;fill-opacity:1;fill-rule:nonzero;stroke:none"
             id="path438"
             inkscape:connector-curvature="0" /></g><g
           id="g440"
           transform="translate(63.8863,33.1636)"><path
             d="M 0,0 0.366,-0.191 C 0.268,-0.396 0.141,-0.539 -0.015,-0.62 -0.172,-0.7 -0.356,-0.722 -0.568,-0.684 c -0.263,0.046 -0.463,0.173 -0.6,0.383 -0.138,0.209 -0.179,0.469 -0.124,0.78 0.057,0.329 0.187,0.57 0.389,0.722 0.202,0.152 0.442,0.204 0.719,0.155 0.242,-0.042 0.425,-0.148 0.552,-0.318 0.074,-0.1 0.12,-0.233 0.138,-0.4 L 0.094,0.613 C 0.089,0.72 0.054,0.809 -0.01,0.882 -0.074,0.955 -0.158,1 -0.264,1.018 -0.411,1.044 -0.539,1.013 -0.649,0.924 -0.759,0.834 -0.834,0.672 -0.876,0.436 -0.92,0.186 -0.906,0 -0.835,-0.122 c 0.071,-0.121 0.179,-0.195 0.323,-0.221 0.106,-0.018 0.203,0 0.291,0.053 C -0.132,-0.236 -0.059,-0.139 0,0"
             style="fill:#9ad420;fill-opacity:1;fill-rule:nonzero;stroke:none"
             id="path442"
             inkscape:connector-curvature="0" /></g><g
           id="g444"
           transform="translate(64.4691,32.3263)"><path
             d="M 0,0 0.29,1.987 0.691,1.928 0.401,-0.058 Z"
             style="fill:#9ad420;fill-opacity:1;fill-rule:nonzero;stroke:none"
             id="path446"
             inkscape:connector-curvature="0" /></g><g
           id="g448"
           transform="translate(65.6954,33.1685)"><path
             d="m 0,0 c -0.026,-0.226 0.007,-0.403 0.098,-0.532 0.091,-0.128 0.216,-0.202 0.377,-0.22 0.16,-0.018 0.299,0.025 0.415,0.128 0.116,0.104 0.188,0.272 0.214,0.503 C 1.13,0.108 1.1,0.284 1.012,0.408 0.925,0.532 0.798,0.604 0.632,0.622 0.466,0.641 0.326,0.6 0.211,0.498 0.097,0.395 0.026,0.23 0,0 m -0.417,0.034 c 0.024,0.203 0.073,0.37 0.15,0.501 0.057,0.096 0.129,0.181 0.217,0.252 0.088,0.072 0.18,0.122 0.279,0.15 0.13,0.039 0.276,0.049 0.438,0.03 C 0.962,0.934 1.186,0.816 1.342,0.613 1.497,0.411 1.557,0.147 1.519,-0.178 1.483,-0.5 1.366,-0.742 1.17,-0.904 0.974,-1.066 0.73,-1.13 0.437,-1.096 c -0.297,0.034 -0.522,0.151 -0.677,0.352 -0.154,0.201 -0.213,0.46 -0.177,0.778"
             style="fill:#9ad420;fill-opacity:1;fill-rule:nonzero;stroke:none"
             id="path450"
             inkscape:connector-curvature="0" /></g><g
           id="g452"
           transform="translate(68.7257,33.552)"><path
             d="m 0,0 -0.069,-1.328 0.303,-0.016 c 0.113,-0.006 0.194,-0.003 0.246,0.007 0.066,0.013 0.122,0.038 0.167,0.075 0.046,0.037 0.084,0.099 0.116,0.188 0.032,0.088 0.052,0.21 0.06,0.365 0.008,0.155 0.001,0.275 -0.022,0.359 -0.024,0.085 -0.058,0.151 -0.105,0.2 C 0.649,-0.101 0.588,-0.066 0.513,-0.046 0.458,-0.03 0.347,-0.018 0.182,-0.01 Z M -0.387,0.36 0.352,0.322 C 0.52,0.313 0.646,0.294 0.732,0.264 0.848,0.223 0.946,0.157 1.025,0.064 1.104,-0.029 1.163,-0.141 1.2,-0.271 1.237,-0.402 1.251,-0.561 1.241,-0.748 1.232,-0.913 1.204,-1.055 1.157,-1.172 1.1,-1.316 1.022,-1.43 0.924,-1.515 0.851,-1.58 0.753,-1.628 0.631,-1.661 0.541,-1.684 0.42,-1.692 0.271,-1.685 l -0.762,0.04 z"
             style="fill:#9ad420;fill-opacity:1;fill-rule:nonzero;stroke:none"
             id="path454"
             inkscape:connector-curvature="0" /></g><g
           id="g456"
           transform="translate(70.3016,31.8114)"><path
             d="M 0,0 0.018,2.008 1.507,1.995 1.504,1.655 0.42,1.665 0.416,1.22 1.424,1.21 1.421,0.872 0.413,0.881 0.408,0.335 1.53,0.325 1.527,-0.014 Z"
             style="fill:#9ad420;fill-opacity:1;fill-rule:nonzero;stroke:none"
             id="path458"
             inkscape:connector-curvature="0" /></g><g
           id="g460"
           transform="translate(73.0216,31.8254)"><path
             d="M 0,0 -0.095,1.989 0.31,2.009 0.389,0.357 1.396,0.405 1.412,0.068 Z"
             style="fill:#9ad420;fill-opacity:1;fill-rule:nonzero;stroke:none"
             id="path462"
             inkscape:connector-curvature="0" /></g><g
           id="g464"
           transform="translate(75.749,32.7997)"><path
             d="m 0,0 -0.342,0.718 -0.204,-0.767 z m 0.814,-0.725 -0.44,-0.039 -0.215,0.439 -0.799,-0.072 -0.125,-0.468 -0.428,-0.038 0.601,2.069 0.427,0.038 z"
             style="fill:#9ad420;fill-opacity:1;fill-rule:nonzero;stroke:none"
             id="path466"
             inkscape:connector-curvature="0" /></g><g
           id="g468"
           transform="translate(77.9141,34.2825)"><path
             d="M 0,0 0.4,0.057 0.58,-1.201 C 0.603,-1.366 0.607,-1.495 0.591,-1.587 0.568,-1.708 0.511,-1.811 0.419,-1.896 0.327,-1.98 0.197,-2.035 0.03,-2.059 c -0.197,-0.028 -0.355,0.006 -0.477,0.101 -0.121,0.094 -0.197,0.248 -0.229,0.46 l 0.373,0.097 c 0.02,-0.113 0.049,-0.191 0.084,-0.234 0.054,-0.065 0.125,-0.091 0.213,-0.079 0.09,0.013 0.149,0.047 0.179,0.104 0.03,0.056 0.033,0.165 0.01,0.326 z"
             style="fill:#9ad420;fill-opacity:1;fill-rule:nonzero;stroke:none"
             id="path470"
             inkscape:connector-curvature="0" /></g><g
           id="g472"
           transform="translate(78.6528,34.3895)"><path
             d="m 0,0 0.399,0.072 0.194,-1.07 c 0.031,-0.169 0.055,-0.279 0.074,-0.327 0.032,-0.078 0.085,-0.135 0.158,-0.173 0.073,-0.037 0.165,-0.046 0.277,-0.026 0.113,0.021 0.194,0.06 0.243,0.116 0.049,0.057 0.073,0.12 0.073,0.19 -10e-4,0.069 -0.015,0.182 -0.043,0.338 L 1.177,0.213 1.575,0.286 1.763,-0.752 C 1.806,-0.989 1.826,-1.159 1.822,-1.261 1.819,-1.363 1.794,-1.452 1.748,-1.53 1.702,-1.608 1.634,-1.676 1.545,-1.733 1.455,-1.791 1.332,-1.834 1.175,-1.862 0.987,-1.897 0.84,-1.901 0.734,-1.875 c -0.105,0.026 -0.192,0.069 -0.261,0.128 -0.07,0.06 -0.12,0.126 -0.152,0.199 -0.046,0.108 -0.09,0.273 -0.13,0.494 z"
             style="fill:#9ad420;fill-opacity:1;fill-rule:nonzero;stroke:none"
             id="path474"
             inkscape:connector-curvature="0" /></g><g
           id="g476"
           transform="translate(81.489,32.8935)"><path
             d="M 0,0 -1.137,1.804 -0.708,1.899 0.111,0.559 0.268,2.117 0.687,2.21 0.422,0.094 Z"
             style="fill:#9ad420;fill-opacity:1;fill-rule:nonzero;stroke:none"
             id="path478"
             inkscape:connector-curvature="0" /></g><g
           id="g480"
           transform="translate(82.7958,33.1926)"><path
             d="M 0,0 -0.511,1.942 0.929,2.32 1.016,1.992 -0.032,1.716 0.081,1.286 1.056,1.542 1.142,1.215 0.167,0.959 0.306,0.43 1.391,0.715 1.477,0.388 Z"
             style="fill:#9ad420;fill-opacity:1;fill-rule:nonzero;stroke:none"
             id="path482"
             inkscape:connector-curvature="0" /></g><g
           id="g484"
           transform="translate(84.593,33.6715)"><path
             d="M 0,0 -0.585,1.921 -0.208,2.036 0.969,0.992 0.579,2.275 0.939,2.385 1.524,0.464 1.135,0.345 -0.021,1.362 0.36,0.11 Z"
             style="fill:#9ad420;fill-opacity:1;fill-rule:nonzero;stroke:none"
             id="path486"
             inkscape:connector-curvature="0" /></g><g
           id="g488"
           transform="translate(86.9321,34.4112)"><path
             d="M 0,0 -0.543,1.577 -1.106,1.383 -1.217,1.705 0.292,2.224 0.402,1.902 -0.16,1.709 0.383,0.132 Z"
             style="fill:#9ad420;fill-opacity:1;fill-rule:nonzero;stroke:none"
             id="path490"
             inkscape:connector-curvature="0" /></g><g
           id="g492"
           transform="translate(87.3877,36.6945)"><path
             d="m 0,0 0.378,0.145 0.39,-1.015 c 0.062,-0.161 0.107,-0.264 0.134,-0.308 0.046,-0.07 0.108,-0.117 0.187,-0.14 0.079,-0.023 0.171,-0.014 0.277,0.026 0.107,0.041 0.18,0.094 0.217,0.159 0.038,0.065 0.05,0.131 0.037,0.2 -0.013,0.068 -0.049,0.176 -0.106,0.325 L 1.116,0.429 1.494,0.574 1.873,-0.411 C 1.959,-0.636 2.01,-0.799 2.025,-0.899 2.04,-1 2.033,-1.093 2.002,-1.178 1.972,-1.263 1.918,-1.342 1.84,-1.415 1.763,-1.489 1.65,-1.554 1.501,-1.611 1.322,-1.68 1.179,-1.711 1.071,-1.705 0.962,-1.699 0.868,-1.674 0.79,-1.628 0.71,-1.583 0.648,-1.527 0.603,-1.461 0.538,-1.363 0.464,-1.21 0.384,-1 Z"
             style="fill:#9ad420;fill-opacity:1;fill-rule:nonzero;stroke:none"
             id="path494"
             inkscape:connector-curvature="0" /></g><g
           id="g496"
           transform="translate(89.7028,37.2422)"><path
             d="m 0,0 0.522,-1.223 0.279,0.119 c 0.104,0.044 0.176,0.082 0.217,0.113 0.055,0.042 0.094,0.089 0.118,0.142 0.025,0.053 0.032,0.126 0.022,0.22 C 1.147,-0.536 1.112,-0.418 1.051,-0.275 0.99,-0.132 0.931,-0.028 0.873,0.037 0.815,0.103 0.754,0.148 0.691,0.171 0.627,0.195 0.557,0.199 0.481,0.184 0.424,0.174 0.319,0.136 0.168,0.071 Z M -0.507,0.153 0.175,0.444 C 0.329,0.51 0.451,0.548 0.542,0.559 0.664,0.573 0.781,0.556 0.893,0.508 1.005,0.459 1.106,0.385 1.197,0.284 1.287,0.183 1.369,0.046 1.443,-0.127 1.508,-0.279 1.546,-0.418 1.555,-0.544 1.566,-0.698 1.546,-0.835 1.496,-0.955 1.458,-1.045 1.392,-1.132 1.297,-1.214 1.226,-1.275 1.121,-1.335 0.984,-1.394 L 0.282,-1.693 Z"
             style="fill:#9ad420;fill-opacity:1;fill-rule:nonzero;stroke:none"
             id="path498"
             inkscape:connector-curvature="0" /></g><g
           id="g500"
           transform="translate(91.8312,36.3507)"><path
             d="M 0,0 -0.16,0.35 0.19,0.51 0.35,0.16 Z"
             style="fill:#9ad420;fill-opacity:1;fill-rule:nonzero;stroke:none"
             id="path502"
             inkscape:connector-curvature="0" /></g><g
           id="g504"
           transform="translate(62.1048,86.9305)"><path
             d="m 0,0 c -1.894,0 -3.429,0.439 -3.429,0.98 0,0.541 1.535,0.98 3.429,0.98 1.894,0 3.429,-0.439 3.429,-0.98 C 3.429,0.439 1.894,0 0,0 m -0.003,2.203 c -2.38,0 -4.309,-0.551 -4.309,-1.231 0,-0.68 1.929,-1.231 4.309,-1.231 2.38,0 4.31,0.551 4.31,1.231 0,0.68 -1.93,1.231 -4.31,1.231"
             style="fill:#a2d724;fill-opacity:1;fill-rule:nonzero;stroke:none"
             id="path506"
             inkscape:connector-curvature="0" /></g><g
           id="g508"
           transform="translate(62.1142,87.2423)"><path
             d="m 0,0 c -1.137,0 -2.06,0.263 -2.06,0.588 0,0.325 0.923,0.589 2.06,0.589 1.137,0 2.06,-0.264 2.06,-0.589 C 2.06,0.263 1.137,0 0,0 m -0.002,1.323 c -1.429,0 -2.588,-0.331 -2.588,-0.739 0,-0.409 1.159,-0.74 2.588,-0.74 1.43,0 2.589,0.331 2.589,0.74 0,0.408 -1.159,0.739 -2.589,0.739"
             style="fill:#a2d724;fill-opacity:1;fill-rule:nonzero;stroke:none"
             id="path510"
             inkscape:connector-curvature="0" /></g><g
           id="g512"
           transform="translate(51.5611,83.9207)"><path
             d="m 0,0 c -1.894,0 -3.429,0.439 -3.429,0.98 0,0.541 1.535,0.98 3.429,0.98 1.894,0 3.429,-0.439 3.429,-0.98 C 3.429,0.439 1.894,0 0,0 m -0.003,2.203 c -2.379,0 -4.309,-0.551 -4.309,-1.231 0,-0.68 1.93,-1.231 4.309,-1.231 2.38,0 4.31,0.551 4.31,1.231 0,0.68 -1.93,1.231 -4.31,1.231"
             style="fill:#a2d724;fill-opacity:1;fill-rule:nonzero;stroke:none"
             id="path514"
             inkscape:connector-curvature="0" /></g><g
           id="g516"
           transform="translate(51.5704,84.2324)"><path
             d="m 0,0 c -1.137,0 -2.06,0.263 -2.06,0.588 0,0.325 0.923,0.589 2.06,0.589 1.137,0 2.06,-0.264 2.06,-0.589 C 2.06,0.263 1.137,0 0,0 m -0.002,1.323 c -1.429,0 -2.588,-0.331 -2.588,-0.739 0,-0.409 1.159,-0.74 2.588,-0.74 1.43,0 2.589,0.331 2.589,0.74 0,0.408 -1.159,0.739 -2.589,0.739"
             style="fill:#a2d724;fill-opacity:1;fill-rule:nonzero;stroke:none"
             id="path518"
             inkscape:connector-curvature="0" /></g><g
           id="g520"
           transform="translate(50.9412,79.9793)"><path
             d="m 0,0 c -1.894,0 -3.429,0.439 -3.429,0.98 0,0.541 1.535,0.98 3.429,0.98 1.894,0 3.429,-0.439 3.429,-0.98 C 3.429,0.439 1.894,0 0,0 m -0.003,2.203 c -2.379,0 -4.309,-0.551 -4.309,-1.231 0,-0.68 1.93,-1.231 4.309,-1.231 2.38,0 4.31,0.551 4.31,1.231 0,0.68 -1.93,1.231 -4.31,1.231"
             style="fill:#a2d724;fill-opacity:1;fill-rule:nonzero;stroke:none"
             id="path522"
             inkscape:connector-curvature="0" /></g><g
           id="g524"
           transform="translate(50.9506,80.291)"><path
             d="m 0,0 c -1.137,0 -2.06,0.263 -2.06,0.588 0,0.325 0.923,0.589 2.06,0.589 1.137,0 2.06,-0.264 2.06,-0.589 C 2.06,0.263 1.137,0 0,0 m -0.002,1.323 c -1.429,0 -2.588,-0.331 -2.588,-0.739 0,-0.409 1.159,-0.74 2.588,-0.74 1.43,0 2.589,0.331 2.589,0.74 0,0.408 -1.159,0.739 -2.589,0.739"
             style="fill:#a2d724;fill-opacity:1;fill-rule:nonzero;stroke:none"
             id="path526"
             inkscape:connector-curvature="0" /></g><g
           id="g528"
           transform="translate(61.0938,76.6648)"><path
             d="m 0,0 c -1.894,0 -3.429,0.439 -3.429,0.98 0,0.541 1.535,0.98 3.429,0.98 1.894,0 3.429,-0.439 3.429,-0.98 C 3.429,0.439 1.894,0 0,0 m -0.003,2.203 c -2.379,0 -4.309,-0.551 -4.309,-1.231 0,-0.68 1.93,-1.231 4.309,-1.231 2.38,0 4.31,0.551 4.31,1.231 0,0.68 -1.93,1.231 -4.31,1.231"
             style="fill:#a2d724;fill-opacity:1;fill-rule:nonzero;stroke:none"
             id="path530"
             inkscape:connector-curvature="0" /></g><g
           id="g532"
           transform="translate(61.1032,76.9765)"><path
             d="m 0,0 c -1.137,0 -2.06,0.263 -2.06,0.588 0,0.325 0.923,0.589 2.06,0.589 1.137,0 2.06,-0.264 2.06,-0.589 C 2.06,0.263 1.137,0 0,0 m -0.001,1.323 c -1.43,0 -2.589,-0.331 -2.589,-0.739 0,-0.409 1.159,-0.74 2.589,-0.74 1.429,0 2.588,0.331 2.588,0.74 0,0.408 -1.159,0.739 -2.588,0.739"
             style="fill:#a2d724;fill-opacity:1;fill-rule:nonzero;stroke:none"
             id="path534"
             inkscape:connector-curvature="0" /></g><g
           id="g536"
           transform="translate(74.9272,76.1239)"><path
             d="m 0,0 c -1.894,0 -3.429,0.439 -3.429,0.98 0,0.541 1.535,0.98 3.429,0.98 1.894,0 3.429,-0.439 3.429,-0.98 C 3.429,0.439 1.894,0 0,0 m -0.003,2.203 c -2.379,0 -4.309,-0.551 -4.309,-1.231 0,-0.68 1.93,-1.231 4.309,-1.231 2.38,0 4.31,0.551 4.31,1.231 0,0.68 -1.93,1.231 -4.31,1.231"
             style="fill:#a2d724;fill-opacity:1;fill-rule:nonzero;stroke:none"
             id="path538"
             inkscape:connector-curvature="0" /></g><g
           id="g540"
           transform="translate(74.9366,76.4356)"><path
             d="m 0,0 c -1.137,0 -2.06,0.263 -2.06,0.588 0,0.325 0.923,0.589 2.06,0.589 1.137,0 2.06,-0.264 2.06,-0.589 C 2.06,0.263 1.137,0 0,0 m -0.002,1.323 c -1.429,0 -2.588,-0.331 -2.588,-0.739 0,-0.409 1.159,-0.74 2.588,-0.74 1.43,0 2.589,0.331 2.589,0.74 0,0.408 -1.159,0.739 -2.589,0.739"
             style="fill:#a2d724;fill-opacity:1;fill-rule:nonzero;stroke:none"
             id="path542"
             inkscape:connector-curvature="0" /></g><g
           id="g544"
           transform="translate(87.6347,77.8189)"><path
             d="m 0,0 c -1.894,0 -3.429,0.439 -3.429,0.98 0,0.541 1.535,0.98 3.429,0.98 1.894,0 3.429,-0.439 3.429,-0.98 C 3.429,0.439 1.894,0 0,0 m -0.003,2.203 c -2.38,0 -4.309,-0.551 -4.309,-1.231 0,-0.68 1.929,-1.231 4.309,-1.231 2.38,0 4.31,0.551 4.31,1.231 0,0.68 -1.93,1.231 -4.31,1.231"
             style="fill:#a2d724;fill-opacity:1;fill-rule:nonzero;stroke:none"
             id="path546"
             inkscape:connector-curvature="0" /></g><g
           id="g548"
           transform="translate(87.644,78.1306)"><path
             d="m 0,0 c -1.137,0 -2.06,0.263 -2.06,0.588 0,0.325 0.923,0.589 2.06,0.589 1.137,0 2.06,-0.264 2.06,-0.589 C 2.06,0.263 1.137,0 0,0 m -0.001,1.323 c -1.43,0 -2.589,-0.331 -2.589,-0.739 0,-0.409 1.159,-0.74 2.589,-0.74 1.429,0 2.588,0.331 2.588,0.74 0,0.408 -1.159,0.739 -2.588,0.739"
             style="fill:#a2d724;fill-opacity:1;fill-rule:nonzero;stroke:none"
             id="path550"
             inkscape:connector-curvature="0" /></g><g
           id="g552"
           transform="translate(92.7086,83.2136)"><path
             d="m 0,0 c -1.894,0 -3.429,0.439 -3.429,0.98 0,0.541 1.535,0.98 3.429,0.98 1.894,0 3.429,-0.439 3.429,-0.98 C 3.429,0.439 1.894,0 0,0 m -0.003,2.203 c -2.38,0 -4.309,-0.551 -4.309,-1.231 0,-0.68 1.929,-1.231 4.309,-1.231 2.38,0 4.31,0.551 4.31,1.231 0,0.68 -1.93,1.231 -4.31,1.231"
             style="fill:#a2d724;fill-opacity:1;fill-rule:nonzero;stroke:none"
             id="path554"
             inkscape:connector-curvature="0" /></g><g
           id="g556"
           transform="translate(92.718,83.5253)"><path
             d="m 0,0 c -1.137,0 -2.06,0.263 -2.06,0.588 0,0.325 0.923,0.589 2.06,0.589 1.137,0 2.06,-0.264 2.06,-0.589 C 2.06,0.263 1.137,0 0,0 m -0.001,1.323 c -1.43,0 -2.589,-0.331 -2.589,-0.739 0,-0.409 1.159,-0.74 2.589,-0.74 1.429,0 2.588,0.331 2.588,0.74 0,0.408 -1.159,0.739 -2.588,0.739"
             style="fill:#a2d724;fill-opacity:1;fill-rule:nonzero;stroke:none"
             id="path558"
             inkscape:connector-curvature="0" /></g><g
           id="g560"
           transform="translate(80.0544,87.0155)"><path
             d="m 0,0 c -1.894,0 -3.429,0.439 -3.429,0.98 0,0.541 1.535,0.98 3.429,0.98 1.894,0 3.429,-0.439 3.429,-0.98 C 3.429,0.439 1.894,0 0,0 m -0.003,2.203 c -2.379,0 -4.309,-0.551 -4.309,-1.231 0,-0.68 1.93,-1.231 4.309,-1.231 2.38,0 4.31,0.551 4.31,1.231 0,0.68 -1.93,1.231 -4.31,1.231"
             style="fill:#a2d724;fill-opacity:1;fill-rule:nonzero;stroke:none"
             id="path562"
             inkscape:connector-curvature="0" /></g><g
           id="g564"
           transform="translate(80.0638,87.3272)"><path
             d="m 0,0 c -1.137,0 -2.06,0.263 -2.06,0.588 0,0.325 0.923,0.589 2.06,0.589 1.137,0 2.06,-0.264 2.06,-0.589 C 2.06,0.263 1.137,0 0,0 m -0.001,1.323 c -1.43,0 -2.589,-0.331 -2.589,-0.739 0,-0.409 1.159,-0.74 2.589,-0.74 1.429,0 2.588,0.331 2.588,0.74 0,0.408 -1.159,0.739 -2.588,0.739"
             style="fill:#a2d724;fill-opacity:1;fill-rule:nonzero;stroke:none"
             id="path566"
             inkscape:connector-curvature="0" /></g><g
           id="g568"
           transform="translate(81.7156,81.5101)"><path
             d="m 0,0 c -2.434,0 -4.408,0.564 -4.408,1.259 0,0.696 1.974,1.26 4.408,1.26 2.434,0 4.408,-0.564 4.408,-1.26 C 4.408,0.564 2.434,0 0,0 m -0.003,2.832 c -3.059,0 -5.539,-0.709 -5.539,-1.583 0,-0.874 2.48,-1.582 5.539,-1.582 3.059,0 5.539,0.708 5.539,1.582 0,0.874 -2.48,1.583 -5.539,1.583"
             style="fill:#a2d724;fill-opacity:1;fill-rule:nonzero;stroke:none"
             id="path570"
             inkscape:connector-curvature="0" /></g><g
           id="g572"
           transform="translate(81.7276,81.9108)"><path
             d="m 0,0 c -1.462,0 -2.647,0.339 -2.647,0.756 0,0.418 1.185,0.757 2.647,0.757 1.462,0 2.647,-0.339 2.647,-0.757 C 2.647,0.339 1.462,0 0,0 m -0.002,1.701 c -1.837,0 -3.327,-0.426 -3.327,-0.951 0,-0.525 1.49,-0.95 3.327,-0.95 1.837,0 3.327,0.425 3.327,0.95 0,0.525 -1.49,0.951 -3.327,0.951"
             style="fill:#a2d724;fill-opacity:1;fill-rule:nonzero;stroke:none"
             id="path574"
             inkscape:connector-curvature="0" /></g><g
           id="g576"
           transform="translate(71.9304,83.8667)"><path
             d="m 0,0 c -2.434,0 -4.408,0.564 -4.408,1.259 0,0.696 1.974,1.26 4.408,1.26 2.434,0 4.408,-0.564 4.408,-1.26 C 4.408,0.564 2.434,0 0,0 m -0.003,2.832 c -3.059,0 -5.539,-0.709 -5.539,-1.583 0,-0.874 2.48,-1.582 5.539,-1.582 3.059,0 5.539,0.708 5.539,1.582 0,0.874 -2.48,1.583 -5.539,1.583"
             style="fill:#a2d724;fill-opacity:1;fill-rule:nonzero;stroke:none"
             id="path578"
             inkscape:connector-curvature="0" /></g><g
           id="g580"
           transform="translate(71.9424,84.2674)"><path
             d="m 0,0 c -1.462,0 -2.647,0.339 -2.647,0.756 0,0.418 1.185,0.757 2.647,0.757 1.462,0 2.647,-0.339 2.647,-0.757 C 2.647,0.339 1.462,0 0,0 m -0.002,1.701 c -1.837,0 -3.327,-0.426 -3.327,-0.951 0,-0.525 1.49,-0.95 3.327,-0.95 1.837,0 3.327,0.425 3.327,0.95 0,0.525 -1.49,0.951 -3.327,0.951"
             style="fill:#a2d724;fill-opacity:1;fill-rule:nonzero;stroke:none"
             id="path582"
             inkscape:connector-curvature="0" /></g><g
           id="g584"
           transform="translate(71.5842,79.1092)"><path
             d="m 0,0 c -2.434,0 -4.408,0.564 -4.408,1.259 0,0.696 1.974,1.26 4.408,1.26 2.434,0 4.408,-0.564 4.408,-1.26 C 4.408,0.564 2.434,0 0,0 m -0.003,2.832 c -3.059,0 -5.539,-0.709 -5.539,-1.583 0,-0.874 2.48,-1.582 5.539,-1.582 3.059,0 5.539,0.708 5.539,1.582 0,0.874 -2.48,1.583 -5.539,1.583"
             style="fill:#a2d724;fill-opacity:1;fill-rule:nonzero;stroke:none"
             id="path586"
             inkscape:connector-curvature="0" /></g><g
           id="g588"
           transform="translate(71.5962,79.5098)"><path
             d="m 0,0 c -1.462,0 -2.647,0.339 -2.647,0.756 0,0.418 1.185,0.757 2.647,0.757 1.462,0 2.647,-0.339 2.647,-0.757 C 2.647,0.339 1.462,0 0,0 m -0.002,1.701 c -1.837,0 -3.327,-0.426 -3.327,-0.951 0,-0.525 1.49,-0.95 3.327,-0.95 1.837,0 3.327,0.425 3.327,0.95 0,0.525 -1.49,0.951 -3.327,0.951"
             style="fill:#a2d724;fill-opacity:1;fill-rule:nonzero;stroke:none"
             id="path590"
             inkscape:connector-curvature="0" /></g><g
           id="g592"
           transform="translate(61.5915,81.3615)"><path
             d="m 0,0 c -2.434,0 -4.408,0.564 -4.408,1.259 0,0.696 1.974,1.26 4.408,1.26 2.434,0 4.408,-0.564 4.408,-1.26 C 4.408,0.564 2.434,0 0,0 m -0.003,2.832 c -3.059,0 -5.539,-0.709 -5.539,-1.583 0,-0.874 2.48,-1.582 5.539,-1.582 3.059,0 5.539,0.708 5.539,1.582 0,0.874 -2.48,1.583 -5.539,1.583"
             style="fill:#a2d724;fill-opacity:1;fill-rule:nonzero;stroke:none"
             id="path594"
             inkscape:connector-curvature="0" /></g><g
           id="g596"
           transform="translate(61.6035,81.7622)"><path
             d="m 0,0 c -1.462,0 -2.647,0.339 -2.647,0.756 0,0.418 1.185,0.757 2.647,0.757 1.462,0 2.647,-0.339 2.647,-0.757 C 2.647,0.339 1.462,0 0,0 m -0.002,1.701 c -1.837,0 -3.327,-0.426 -3.327,-0.951 0,-0.525 1.49,-0.95 3.327,-0.95 1.837,0 3.327,0.425 3.327,0.95 0,0.525 -1.49,0.951 -3.327,0.951"
             style="fill:#a2d724;fill-opacity:1;fill-rule:nonzero;stroke:none"
             id="path598"
             inkscape:connector-curvature="0" /></g><g
           id="g600"
           transform="translate(79.7841,62.099)"><path
             d="M 0,0 -0.359,-0.406 -0.672,0.031 -0.25,0.687 C -0.25,0.687 0.109,0.25 0,0 m -2.344,-3.547 c 0,0 0.016,0.391 -0.109,0.359 l 0.859,0.954 c 0,0 0.766,-2.657 -0.75,-1.313 m 0.875,5.234 -0.297,-0.546 -0.406,0.421 c -0.062,0.079 0.703,0.125 0.703,0.125 m -4.194,-5.272 c 0,0 -0.953,0.22 -1.026,0.165 -0.073,-0.055 -0.201,0.367 -0.201,0.367 l 0.476,0.018 -0.055,1.154 0.732,0.091 0.074,1.008 -0.824,-0.019 v 0.165 l 0.824,0.055 V 0.335 L -6.579,0.262 v 0.165 l 0.934,0.091 -0.11,0.66 -0.989,0.164 c 0,0 0.971,0.055 0.824,0.495 l 1.942,-1.246 0.384,-1.849 z m 1.007,7.023 -0.938,1.734 C -5.187,4.984 -4.219,2.969 -4.219,2.969 -4.344,3.188 -6.328,4.062 -6.328,4.062 L -6.469,4.625 Z M 1.898,0.185 c 0,0 -0.328,2.235 -1.875,2.375 0,0 0.281,1.453 0.156,1.75 0,0 -0.797,1.375 -1.765,1.047 0,0 -0.907,-0.359 -0.266,-1.156 0,0 0.125,-0.735 0.125,-0.844 0,0 -0.813,0.188 -0.984,0.141 0,0 0.062,2.89 -2.61,2.968 l -1.062,0.016 -0.858,1.42 h -6.105 l -2.961,-6.588 3.002,3.324 V 2.845 c 0,0 -0.685,0.061 -0.685,-0.725 0,0 -0.121,-0.685 0.705,-0.705 V 1.216 l -0.848,-0.015 v -0.75 l 0.953,-0.078 v -0.11 l -1.078,-0.047 -0.032,-0.687 h 1.032 l -0.016,-0.172 -1.047,-0.016 0.047,-0.843 1.344,-0.25 -0.203,-1.375 -3.063,-1.297 c 0,0 -1.031,-0.516 -0.515,-1.906 0,0 0.828,-3.954 4.14,-2.422 0,0 0.578,-1.188 2.672,-1.172 0,0 1.453,-0.156 2.375,1.125 0,0 2.016,-0.516 3.313,1.578 0,0 0.468,0.797 0.39,1.187 0,0 0.781,-0.187 1.281,0.407 0,0 2.688,-0.969 3.485,1.968 0,0 0.031,1.235 -0.594,1.625 0,0 1.719,0.86 1.547,2.219"
             style="fill:#050301;fill-opacity:1;fill-rule:nonzero;stroke:none"
             id="path602"
             inkscape:connector-curvature="0" /></g><g
           id="g604"
           transform="translate(81.2883,62.4043)"><path
             d="m 0,0 c 0,0 -0.282,1.323 -1.703,2.169 0.123,0.916 0.075,1.509 0.075,1.509 -1.084,1.821 -1.676,0.688 -1.676,0.688 0.248,-0.217 0.423,-1.071 0.526,-1.741 -0.49,0.141 -1.059,0.23 -1.731,0.233 l -0.132,1.12 c 0,0 -0.997,2.459 -3.709,1.916 l 0.515,-0.349 c 0,0 2.157,-0.651 2.337,-3.124 -0.622,0.37 -1.311,0.684 -2.096,0.894 l -1.324,0.123 0.036,-1.081 c 0,0 2.284,-0.754 3.764,-1.944 l 0.529,-2.362 0.117,0.468 c -1.332,-1.683 -2.91,-3.208 -2.91,-3.208 l 0.856,-0.648 c 0.176,0.118 0.329,0.243 0.493,0.364 l 0.257,-0.742 c 0,0 0.672,-0.672 1.437,0.17 0,0 3.073,-0.723 3.375,1.869 0,0 -0.156,0.593 -0.539,1.437 C -0.935,-1.886 0,-1.134 0,0 m -1.977,-1.299 c -0.14,0.25 -0.302,0.509 -0.476,0.77 0.253,0.593 0.439,1.162 0.562,1.677 0.275,-0.242 0.531,-0.586 0.746,-1.088 0,0 -0.053,-0.923 -0.832,-1.359 m -2.483,-2.498 -0.165,0.039 c 0.632,0.647 1.135,1.313 1.53,1.972 0.229,-0.367 0.422,-0.756 0.564,-1.167 0,0 0.542,-3.496 -1.929,-0.844 M -4.117,-0.5 C -4.044,-0.575 -3.97,-0.648 -3.9,-0.726 -3.953,-0.8 -4.009,-0.874 -4.064,-0.948 Z m 1.406,2.067 C -2.782,1.224 -2.937,0.839 -3.164,0.425 c -0.279,0.333 -0.596,0.657 -0.94,0.969 0.408,0.166 0.901,0.275 1.393,0.173"
             style="fill:#ffffff;fill-opacity:1;fill-rule:nonzero;stroke:none"
             id="path606"
             inkscape:connector-curvature="0" /></g><g
           id="g608"
           transform="translate(77.004,62.5823)"><path
             d="m 0,0 h -0.404 c -0.334,0 -0.607,0.273 -0.607,0.607 v 0 c 0,0.333 0.273,0.606 0.607,0.606 H 0 c 0.334,0 0.607,-0.273 0.607,-0.606 v 0 C 0.607,0.273 0.334,0 0,0"
             style="fill:#8c57a3;fill-opacity:1;fill-rule:nonzero;stroke:none"
             id="path610"
             inkscape:connector-curvature="0" /></g><g
           id="g612"
           transform="translate(73.9211,67.4347)"><path
             d="m 0,0 v 0 c -0.286,0 -0.52,0.234 -0.52,0.52 0,0.286 0.234,0.52 0.52,0.52 0.286,0 0.52,-0.234 0.52,-0.52 C 0.52,0.234 0.286,0 0,0"
             style="fill:#8c57a3;fill-opacity:1;fill-rule:nonzero;stroke:none"
             id="path614"
             inkscape:connector-curvature="0" /></g><g
           id="g616"
           transform="translate(78.997,64.9507)"><path
             d="m 0,0 h -0.116 c -0.349,0 -0.635,0.286 -0.635,0.635 0,0.35 0.286,0.636 0.635,0.636 H 0 C 0.349,1.271 0.635,0.985 0.635,0.635 0.635,0.286 0.349,0 0,0"
             style="fill:#8c57a3;fill-opacity:1;fill-rule:nonzero;stroke:none"
             id="path618"
             inkscape:connector-curvature="0" /></g><g
           id="g620"
           transform="translate(79.9752,60.5026)"><path
             d="m 0,0 v 0 c -0.288,0 -0.524,0.236 -0.524,0.524 v 0.09 c 0,0.288 0.236,0.524 0.524,0.524 0.288,0 0.524,-0.236 0.524,-0.524 V 0.524 C 0.524,0.236 0.288,0 0,0"
             style="fill:#8c57a3;fill-opacity:1;fill-rule:nonzero;stroke:none"
             id="path622"
             inkscape:connector-curvature="0" /></g><g
           id="g624"
           transform="translate(76.3215,57.7298)"><path
             d="m 0,0 v 0 c -0.423,0 -0.769,0.346 -0.769,0.769 v 0.269 c 0,0.423 0.346,0.769 0.769,0.769 0.423,0 0.769,-0.346 0.769,-0.769 V 0.769 C 0.769,0.346 0.423,0 0,0"
             style="fill:#8c57a3;fill-opacity:1;fill-rule:nonzero;stroke:none"
             id="path626"
             inkscape:connector-curvature="0" /></g><g
           id="g628"
           transform="translate(66.9077,68.4822)"><path
             d="m 0,0 -0.136,-5.263 -0.846,-0.082 -0.027,-0.436 0.927,-0.136 -0.027,-0.273 -0.845,-0.136 -0.028,-0.409 h 0.927 l -0.027,-0.409 -0.981,-0.028 v -0.436 l 1.39,-0.218 -0.109,-1.827 c 0,0 -3.545,-1.255 -3.654,-1.855 0,0 -0.327,-3.354 2.4,-3.381 0,0 1.2,-0.136 1.336,0.273 0,0 5.617,-0.436 6.354,-0.191 0,0 2.045,0.873 2.045,2.318 0,0 -0.682,2.154 -2.918,2.318 l -0.218,0.845 0.518,0.082 0.082,1.2 0.791,0.109 -0.028,0.572 -0.845,0.028 v 0.436 l 0.927,0.027 v 0.627 L 5.999,-6.299 v 0.382 l 0.9,0.136 -0.082,0.491 H 5.781 L 5.699,0.191 Z"
             style="fill:#50389b;fill-opacity:1;fill-rule:nonzero;stroke:none"
             id="path630"
             inkscape:connector-curvature="0" /></g><g
           id="g632"
           transform="translate(73.189,63.6868)"><path
             d="m 0,0 h -6.684 c -0.265,0 -0.482,0.217 -0.482,0.482 0,0.266 0.217,0.483 0.482,0.483 H 0 C 0.265,0.965 0.482,0.748 0.482,0.482 0.482,0.217 0.265,0 0,0"
             style="fill:#683c18;fill-opacity:1;fill-rule:nonzero;stroke:none"
             id="path634"
             inkscape:connector-curvature="0" /></g><g
           id="g636"
           transform="translate(66.8301,62.9743)"><path
             d="M 0,0 -0.063,-2.184 0.405,-2.318 0.296,-4.145 c 0,0 2.363,-0.318 1.382,-1.806 0,0 -1.14,-3.102 -3.989,-1.614 0,0 0.095,-3.767 5.571,0.127 0,0 2.153,-3.134 4.147,-1.203 0,0 -3.64,1.487 -2.912,2.817 0,0 -0.443,1.962 0.949,1.393 l 0.032,0.791 h 0.57 l 0.031,3.545 H 5.698 L 5.603,-3.134 0.728,-3.165 0.696,-1.962 0.222,-1.836 0.411,0.127 Z"
             style="fill:#56288e;fill-opacity:1;fill-rule:nonzero;stroke:none"
             id="path638"
             inkscape:connector-curvature="0" /></g><g
           id="g640"
           transform="translate(66.6516,69.6225)"><path
             d="m 0,0 -2.184,-4.879 2.332,3.122 -0.035,-2.404 1.65,2.727 0.431,-2.978 1.363,2.978 1.292,-2.978 0.287,2.871 1.471,-2.405 -0.394,2.082 1.83,-1.795 -2.333,3.661 z"
             style="fill:#ca2525;fill-opacity:1;fill-rule:nonzero;stroke:none"
             id="path642"
             inkscape:connector-curvature="0" /></g><g
           id="g644"
           transform="translate(67.3182,54.3867)"><path
             d="m 0,0 c 0,0 0.235,-1.797 2.481,-1.925 0,0 1.581,-0.127 2.417,1.433 0,0 0.428,2.075 -2.289,2.096 C 2.609,1.604 0.171,1.946 0,0"
             style="fill:#be88cb;fill-opacity:1;fill-rule:nonzero;stroke:none"
             id="path646"
             inkscape:connector-curvature="0" /></g><g
           id="g648"
           transform="translate(71.5961,54.6754)"><path
             d="m 0,0 c 0,-0.408 -0.833,-0.738 -1.861,-0.738 -1.028,0 -1.861,0.33 -1.861,0.738 0,0.407 0.833,0.738 1.861,0.738 C -0.833,0.738 0,0.407 0,0"
             style="fill:#52288e;fill-opacity:1;fill-rule:nonzero;stroke:none"
             id="path650"
             inkscape:connector-curvature="0" /></g><g
           id="g652"
           transform="translate(68.1097,53.9375)"><path
             d="M 0,0 C 0,0 1.707,-1.133 3.271,0 3.271,0 1.711,-2.267 0,0"
             style="fill:#b060b7;fill-opacity:1;fill-rule:nonzero;stroke:none"
             id="path654"
             inkscape:connector-curvature="0" /></g></g></g></g></svg>