<?xml version="1.0" encoding="UTF-8" standalone="no"?>
<!-- Created with Inkscape (http://www.inkscape.org/) -->

<svg
   xmlns:dc="http://purl.org/dc/elements/1.1/"
   xmlns:cc="http://creativecommons.org/ns#"
   xmlns:rdf="http://www.w3.org/1999/02/22-rdf-syntax-ns#"
   xmlns:svg="http://www.w3.org/2000/svg"
   xmlns="http://www.w3.org/2000/svg"
   xmlns:sodipodi="http://sodipodi.sourceforge.net/DTD/sodipodi-0.dtd"
   xmlns:inkscape="http://www.inkscape.org/namespaces/inkscape"
   version="1.1"
   id="svg1069"
   width="268"
   height="164"
   viewBox="0 0 268 164"
   sodipodi:docname="logotnm.png.2017_09_04_13_53_36.0.svg">
  <metadata
     id="metadata1075">
    <rdf:RDF>
      <cc:Work
         rdf:about="">
        <dc:format>image/svg+xml</dc:format>
        <dc:type
           rdf:resource="http://purl.org/dc/dcmitype/StillImage" />
      </cc:Work>
    </rdf:RDF>
  </metadata>
  <defs
     id="defs1073" />
  <sodipodi:namedview
     pagecolor="#ffffff"
     bordercolor="#666666"
     borderopacity="1"
     objecttolerance="10"
     gridtolerance="10"
     guidetolerance="10"
     inkscape:pageopacity="0"
     inkscape:pageshadow="2"
     inkscape:window-width="1366"
     inkscape:window-height="715"
     id="namedview1071"
     showgrid="false"
     inkscape:snap-page="true"
     showguides="false"
     inkscape:zoom="2.1567164"
     inkscape:cx="116.06502"
     inkscape:cy="80.732622"
     inkscape:window-x="0"
     inkscape:window-y="0"
     inkscape:window-maximized="1"
     inkscape:current-layer="svg1069" />
  <path
     style="fill:#28407e;fill-opacity:1"
     d="m 15,141.89301 c 0,-10.18233 0.145688,-11.04779 1.75,-10.39585 4.303608,1.74883 8.043335,2.53371 11.75,2.46602 2.2,-0.0402 5.803044,0.46543 8.006765,1.12356 8.475085,2.53103 21.195355,-4.02277 23.639168,-12.17948 C 60.930748,120.28778 61.896622,119 63.0765,119 c 5.304305,0 8.181426,-4.56218 7.818475,-12.39757 -0.133281,-2.87726 0.05418,-5.71114 0.416571,-6.2975 0.959626,-1.552713 5.343755,-2.17205 9.20724,-1.300693 3.989272,0.899727 4.304745,0.392255 5.492501,-8.835273 C 88.942375,67.397704 73.463636,44.215725 51.539901,38.542343 45.237011,36.911293 33.856019,36.591275 30.5,37.950729 c -1.653994,0.669999 -1.307988,0.926453 2,1.482367 16.440482,2.762853 28.335286,9.078133 30.062821,15.961181 0.372555,1.484375 0.493474,2.882762 0.268709,3.107526 -0.224765,0.224765 -2.791288,-0.731619 -5.703386,-2.125298 C 50.487909,53.198605 35.753865,49.445051 26.25,48.510181 19.971145,47.892546 19,48.011539 19,49.398509 19,50.619811 20.024687,51 23.316341,51 c 4.944905,0 15.837621,1.830887 16.892018,2.839271 0.389598,0.372596 0.343365,1.268021 -0.102739,1.989833 -0.664309,1.074874 -1.787879,1.037468 -6.20836,-0.20669 C 26.053722,53.414825 19,52.560957 19,53.819069 c 0,1.216893 1.778516,1.790973 14.25,4.599702 1.5125,0.340633 2.75,1.28576 2.75,2.100281 0,1.891965 -0.949255,1.84947 -9.75,-0.436474 C 20.415929,58.56721 19,58.463727 19,59.552711 c 0,1.350428 2.776342,2.358643 12.466906,4.527296 3.870566,0.866195 5.510247,1.815065 6.690672,3.871837 l 1.563621,2.724453 -5.068546,-0.921238 C 31.864952,69.248378 27.315183,67.971438 24.542053,66.917415 18.517234,64.627474 19,64.667335 19,66.45982 19,67.816516 30.028736,72 33.605335,72 34.372401,72 35,72.45 35,73 c 0,0.583333 -3.333333,1 -8,1 -6.444444,0 -8,0.291667 -8,1.5 0,1.225225 1.694444,1.5 9.25,1.5 h 9.25 v 2.956787 2.956786 l -9.25,-0.607609 c -7.553505,-0.496172 -9.250114,-0.350693 -9.250622,0.793213 -4.71e-4,1.062865 1.266126,1.325633 5.25,1.089163 L 29.5,83.87668 26.307417,85.888724 c -1.75592,1.106624 -4.90592,2.88595 -7,3.954057 L 15.5,91.784794 15.241449,53.868746 14.982898,15.952699 32.191644,16.226349 49.40039,16.5 l 1.577166,6.405211 c 1.362239,5.532346 2.010177,6.610281 4.754657,7.910045 3.154126,1.493768 3.218227,1.470032 8.717221,-3.227906 l 5.539731,-4.732739 7.976277,5.621035 c 4.386952,3.091569 8.227116,6.026903 8.533699,6.522964 0.306582,0.49606 -0.564739,3.663583 -1.936268,7.038938 l -2.493691,6.137011 2.133531,2.885755 c 2.091374,2.828734 2.273524,2.873922 9.218307,2.286872 l 7.08478,-0.598882 2.88262,8.875848 c 1.58545,4.881716 3.08104,9.402518 3.32354,10.046225 0.2425,0.643707 -2.09384,2.791837 -5.19187,4.773621 -5.519512,3.53079 -5.626617,3.68772 -5.326434,7.804285 0.271341,3.721024 0.76339,4.464007 4.306344,6.502484 2.2,1.265795 4.59497,2.663257 5.32216,3.105473 1.0613,0.645396 0.75355,2.761199 -1.55984,10.72389 L 101.38033,114.5 h -7.265489 c -6.800037,0 -7.396165,0.17897 -9.305355,2.79363 l -2.03987,2.79364 2.203522,5.20636 c 1.211937,2.86351 2.405688,5.68748 2.652779,6.27551 0.247091,0.58803 -3.335326,4.03403 -7.960927,7.65778 l -8.410183,6.58864 -5.185181,-4.53587 c -4.697483,-4.10924 -5.475626,-4.45257 -8.273169,-3.65025 -3.726695,1.06881 -4.408152,2.19251 -5.83429,9.62056 L 50.858204,153 H 32.929102 15 Z m 20.020107,-22.5061 c 0.03123,-18.4656 2.606954,-32.796204 5.785308,-32.187875 1.357367,0.259797 1.828856,1.940802 2.36932,8.447368 0.820342,9.875957 3.881492,16.533957 10.01607,21.784927 4.153137,3.55493 4.229703,3.72879 2.779742,6.31208 -2.249559,4.00786 -7.264063,6.43019 -14.516405,7.01233 L 35,131.27382 Z M 18,127.24845 c -4.842152,-2.41893 -4.931878,-5.32476 -0.4268,-13.82224 6.312125,-11.90595 21.67999,-33.602384 19.011293,-26.840255 -1.939066,4.913343 -4.48496,16.851585 -5.52809,25.922405 -2.024721,17.60651 -1.629172,16.49186 -5.851716,16.49009 C 23.167109,128.99759 19.925,128.21009 18,127.24845 Z M 59.869829,116.01786 C 52.463031,113.81906 46.62809,105.31364 45.451028,95 l -0.627698,-5.5 2.215737,4.296283 c 1.218655,2.362955 3.812218,5.512955 5.763472,6.999997 2.93613,2.23762 4.551904,2.69767 9.372599,2.66865 L 68,103.42986 v 3.7693 c 0,5.24364 -4.334697,9.94543 -8.130171,8.8187 z m -45.234147,-7.24723 c -1.378252,-5.14406 -0.66604,-10.581374 1.760965,-13.443905 2.529327,-2.983216 13.319468,-9.943943 14.141025,-9.122386 0.26517,0.26517 -1.025785,2.465172 -2.868787,4.888894 -1.843003,2.423722 -5.392546,7.903552 -7.887873,12.177397 -3.906897,6.6915 -4.621445,7.45531 -5.14533,5.5 z m 41.718855,-9.367675 c -3.57554,-1.76364 -8.979691,-6.963815 -6.081011,-5.851487 0.949561,0.36438 2.429382,0.392779 3.288492,0.06311 1.416023,-0.543379 1.416023,-0.807838 0,-2.829495 -1.878236,-2.681557 -1.996591,-7.367868 -0.272159,-10.776222 1.339703,-2.647935 4.963232,-4.131842 4.486259,-1.837212 C 57.619947,78.922954 58.362864,79.5 59.486305,79.5 c 2.950844,0 3.278784,-3.479749 0.337019,-3.576078 -1.906158,-0.06242 -1.709027,-0.298119 1.097886,-1.312691 1.881665,-0.680137 3.69176,-2.007892 4.022432,-2.950566 0.529476,-1.509421 0.832709,-1.544686 2.541043,-0.295522 1.673342,1.223578 1.751281,1.645609 0.567354,3.072153 -0.754857,0.909547 -1.97537,1.422366 -2.712253,1.139598 C 63.576985,74.900444 63.662207,77.785117 65.5,81 c 2.100669,3.674736 1.813336,5.536205 -1.056388,6.843738 -1.406014,0.640623 -2.279456,1.612855 -1.940983,2.160515 C 62.841102,90.551914 62.593331,91 61.952028,91 c -0.641303,0 -0.906984,0.675 -0.590402,1.5 0.316583,0.825 0.139728,1.5 -0.393011,1.5 -2.012699,0 -0.863468,3.090786 1.559763,4.194883 1.834146,0.835694 2.177366,1.374754 1.25,1.963247 -1.87808,1.19181 -3.891912,0.98695 -7.423841,-0.755175 z m -7.389711,-9.945337 c -0.876339,-1.055923 -0.955947,-1.866497 -0.25241,-2.570034 0.703538,-0.703538 1.182605,-0.21708 1.518947,1.542381 0.572972,2.997308 0.450562,3.09663 -1.266537,1.027653 z M 41.2,84.8 C 38.22061,81.82061 40.865336,75 45,75 c 4.134664,0 6.77939,6.82061 3.8,9.8 -1.546918,1.546918 -6.053082,1.546918 -7.6,0 z m 6.665518,-2.524177 C 49.138934,80.000355 47.517567,77 45.014506,77 c -2.526756,0 -4.136009,2.904452 -2.89453,5.224177 1.211988,2.264621 4.490606,2.294092 5.745542,0.05165 z M 43.75,81.337719 c 0.6875,-0.277412 1.8125,-0.277412 2.5,0 0.6875,0.277413 0.125,0.504386 -1.25,0.504386 -1.375,0 -1.9375,-0.226973 -1.25,-0.504386 z m 33.904684,-3.12523 c 0.666549,-2.548889 -3.026743,-6.790746 -7.712586,-8.858135 -3.584325,-1.581401 -3.946331,-2.058598 -3.410921,-4.4963 0.329438,-1.499925 0.131891,-4.41879 -0.438994,-6.486366 -0.570886,-2.067577 -0.851778,-3.945427 -0.624205,-4.173 1.075341,-1.07534 9.262192,4.755656 11.84773,8.438418 3.257299,4.639599 4.565876,11.847122 2.762656,15.216469 -1.390831,2.598792 -3.074627,2.84814 -2.42368,0.358914 z M 49.75,74.819599 c -0.9625,-1.00078 -3.2125,-1.851227 -5,-1.889884 C 42.026473,72.870815 41.823983,72.720209 43.5,72 c 2.754807,-1.183781 12.66823,-1.183781 14.5,0 1.307694,0.845097 1.292933,0.971338 -0.115141,0.984687 -0.888328,0.0084 -2.688328,0.834132 -4,1.834912 -2.306045,1.759465 -2.442693,1.759465 -4.134859,0 z m -8.367364,-7.292105 c -2.207278,-3.148962 -1.600767,-4.081046 1.040769,-1.599451 2.223321,2.088701 3.172842,2.247579 11.500505,1.924314 5.619796,-0.218151 9.076955,0.02853 9.07672,0.647643 -2.29e-4,0.600749 -4.039797,1 -10.117869,1 -8.936511,0 -10.278878,-0.230243 -11.500125,-1.972506 z M 53.31675,62.75 c 0.628662,-1.7875 1.220966,-3.393893 1.31623,-3.569761 0.09526,-0.175869 2.129317,0.684745 4.520115,1.912476 L 63.5,63.324952 l -3,1.29242 c -1.65,0.710831 -4.198411,1.312717 -5.663136,1.337524 C 52.261057,65.998521 52.21121,65.893427 53.31675,62.75 Z m -8.662242,1.5 C 44.399569,63.8375 45.455041,63.5 47,63.5 c 1.544959,0 2.600431,0.3375 2.345492,0.75 C 49.090552,64.6625 48.035081,65 47,65 45.964919,65 44.909448,64.6625 44.654508,64.25 Z m -0.09595,-3.834296 C 43.638091,59.495234 43.135859,58.08834 43.44249,57.289274 43.74912,56.490207 44,55.648229 44,55.418213 44,55.188196 45.139123,55 46.531385,55 c 2.856203,0 4.292538,2.470257 2.806319,4.826404 -1.445399,2.291433 -2.897906,2.470537 -4.779143,0.5893 z M 49,57 c 0,-0.55 -0.45,-1 -1,-1 -0.55,0 -1,0.45 -1,1 0,0.55 0.45,1 1,1 0.55,0 1,-0.45 1,-1 z"
     id="path1081"
     inkscape:connector-curvature="0"
     sodipodi:nodetypes="scccssscsssssscsssssssssssssscsssssssscccssscsscccccssscssscssccsssscccscccsscscscccssssscccscsssccsscscscsscsssscsscsscscssssssssscsscssssssssscssccccscsssssssssssscssssscssscscssscscscccsssccsssss"
     inkscape:export-xdpi="96"
     inkscape:export-ydpi="96" />
  <path
     style="fill:#28407e;stroke:none;stroke-width:1px;stroke-linecap:butt;stroke-linejoin:miter;stroke-opacity:1;fill-opacity:1"
     d="m 117.64478,77.260943 -0.0564,-1.353536 h 2.1431 l -0.16919,-19.005892 -4.34259,-0.0564 v 2.199495 h -1.07155 l -0.0564,-6.767677 17.48317,-0.112795 0.11279,4.680977 -6.54209,0.112794 -0.16919,18.893098 h 2.93266 v 1.240741 z"
     id="path1083"
     inkscape:connector-curvature="0"
     inkscape:export-xdpi="96"
     inkscape:export-ydpi="96" />
  <path
     style="fill:#28407e;stroke:none;stroke-width:1px;stroke-linecap:butt;stroke-linejoin:miter;stroke-opacity:1;fill-opacity:1"
     d="m 136.3859,54.17346 0.31903,22.730983 15.95157,-0.159515 -0.0798,-3.828376 -10.60779,0.319031 0.0798,-6.141353 h 7.09844 l -0.15951,-4.944986 h -6.85918 v -5.18426 l 10.52804,0.07976 V 52.41879 l -17.70624,0.07976 z"
     id="path1892"
     inkscape:connector-curvature="0"
     inkscape:export-xdpi="96"
     inkscape:export-ydpi="96" />
  <path
     style="fill:#28407e;stroke:none;stroke-width:1px;stroke-linecap:butt;stroke-linejoin:round;stroke-opacity:1;fill-opacity:1"
     d="m 172.75547,60.952876 0.63806,-2.153461 2.51121,-2.628001 c -1.30549,-0.428896 -2.02201,-1.450239 -4.74443,-3.194322 -4.58736,-1.214952 -6.1209,-0.394017 -8.29481,1e-6 -4.15999,2.254623 -5.76037,4.819417 -6.54014,7.497236 -0.82112,2.836852 -1.08532,5.859348 -4e-5,9.331667 0.90705,3.268829 3.02716,5.975497 6.46038,7.337721 4.01121,1.159454 6.68935,0.819216 9.01264,0.07976 1.9806,-0.950475 3.15968,-2.301705 4.30692,-3.668861 l 0.0798,-1.196367 -2.23322,-1.993946 -3.0308,2.871282 c -1.69612,0.450024 -3.20371,1.065007 -6.54014,0.07976 -1.27278,-0.615024 -2.52567,-1.408993 -3.5891,-3.908134 -0.58284,-2.447264 -0.76877,-5.159138 -0.0797,-8.454331 0.39714,-1.87098 1.59887,-3.205566 3.27008,-4.227165 1.98947,-0.53856 3.97624,-1.089313 6.38063,0.239273 l 1.59515,1.036852 z"
     id="path1894"
     inkscape:connector-curvature="0"
     sodipodi:nodetypes="cccccccccccccccccccc"
     inkscape:export-xdpi="96"
     inkscape:export-ydpi="96" />
  <path
     style="fill:#28407e;stroke:none;stroke-width:1px;stroke-linecap:butt;stroke-linejoin:miter;stroke-opacity:1;fill-opacity:1"
     d="m 181.14815,54.363636 -2.1995,-0.0564 V 52.38973 l 7.55724,0.0564 8.62879,11.787037 -0.11279,-11.787037 5.75252,-0.0564 0.33839,25.378788 -3.44024,-0.0564 -10.65909,-15.001684 h -0.84596 l 0.11279,14.888889 -6.93687,0.0564 -0.0564,-1.579125 h 2.0867 z"
     id="path1898"
     inkscape:connector-curvature="0"
     inkscape:export-xdpi="96"
     inkscape:export-ydpi="96" />
  <path
     style="fill:#28407e;stroke:none;stroke-width:1px;stroke-linecap:butt;stroke-linejoin:miter;stroke-opacity:1;fill-opacity:1"
     d="m 204.94781,77.373737 -0.0564,-1.297138 1.86112,-0.112794 -0.1128,-22.276937 h -1.63552 l 0.0564,-1.861111 h 7.83922 l 6.14731,13.478957 6.42929,-13.535354 4.79377,0.0564 -0.0564,25.717172 -5.01937,-0.169192 -0.0564,-10.659091 c 0,0 -5.13216,10.26431 -5.30135,10.489899 -0.16919,0.225589 -1.63552,0.169192 -1.63552,0.169192 l -5.01936,-10.828283 0.0564,10.941078 z"
     id="path1904"
     inkscape:connector-curvature="0"
     inkscape:export-xdpi="96"
     inkscape:export-ydpi="96" />
  <path
     style="fill:#28407e;stroke:none;stroke-width:1px;stroke-linecap:butt;stroke-linejoin:miter;stroke-opacity:1;fill-opacity:1"
     d="m 114.26094,115.21633 3.55303,-18.667509 -0.90235,-1.127946 0.0564,-1.691919 h 2.0867 l 7.67004,13.591754 7.50084,-13.084178 h 0.90236 l 3.04545,19.964648 h 0.90236 l 0.11279,0.73316 -4.00421,0.1692 -2.59427,-9.53115 c 0,0 -5.30135,9.36195 -5.58334,9.75673 -0.28198,0.39479 -6.54208,-9.98232 -6.54208,-9.98232 l -2.48148,9.81313 z"
     id="path1906"
     inkscape:connector-curvature="0"
     inkscape:export-xdpi="96"
     inkscape:export-ydpi="96" />
  <path
     style="fill:#28407e;stroke:none;stroke-width:1px;stroke-linecap:butt;stroke-linejoin:miter;stroke-opacity:1;fill-opacity:1"
     d="m 141.50084,96.436027 0.50758,18.780303 h 12.4638 l -0.0564,-3.04545 h -8.4596 l -0.0564,-5.30135 5.18855,-0.0564 -0.11279,-4.1734 c 0,0 -4.73737,0 -4.96296,0.0564 -0.22559,0.0564 -0.0564,-4.737376 -0.0564,-4.737376 h 7.72643 l 0.0564,-3.947811 -13.98653,0.0564 z"
     id="path1908"
     inkscape:connector-curvature="0"
     inkscape:export-xdpi="96"
     inkscape:export-ydpi="96" />
  <path
     style="fill:#28407e;stroke:none;stroke-width:1px;stroke-linecap:butt;stroke-linejoin:miter;stroke-opacity:1;fill-opacity:1"
     d="m 157.1229,115.27273 5.52693,-0.16919 4.79377,-7.21886 5.30135,6.99327 5.69613,-0.1692 -8.12121,-10.77188 7.04966,-9.643941 -5.30135,-0.169192 -4.28619,6.203703 -4.85017,-5.865319 -0.33839,-0.338384 -5.69612,-0.0564 0.0564,1.804714 1.86112,-0.0564 6.03451,7.895629 z"
     id="path1910"
     inkscape:connector-curvature="0"
     inkscape:export-xdpi="96"
     inkscape:export-ydpi="96" />
  <path
     style="fill:#28407e;stroke:none;stroke-width:1px;stroke-linecap:butt;stroke-linejoin:miter;stroke-opacity:1;fill-opacity:1"
     d="m 182.2197,115.21633 -0.39478,-19.175084 -1.86111,-0.112795 v -2.143098 h 7.21885 l -0.16919,21.374577 c 0,0 -6.48569,0.39478 -4.79377,0.0564 z"
     id="path1912"
     inkscape:connector-curvature="0"
     inkscape:export-xdpi="96"
     inkscape:export-ydpi="96" />
  <text
     xml:space="preserve"
     style="font-style:italic;font-variant:normal;font-weight:normal;font-stretch:normal;font-size:8px;line-height:1.25;font-family:serif;-inkscape-font-specification:'serif Italic';letter-spacing:0px;word-spacing:0px;fill:#28407e;fill-opacity:1;stroke:none;"
     x="103.31986"
     y="87.976433"
     id="text3398"
     inkscape:export-xdpi="96"
     inkscape:export-ydpi="96"><tspan
       sodipodi:role="line"
       id="tspan3396"
       x="103.31986"
       y="87.976433"
       style="font-style:normal;font-variant:normal;font-weight:bold;font-stretch:normal;font-family:serif;-inkscape-font-specification:'serif Bold';letter-spacing:-0.09px;fill:#28407e;fill-opacity:1;">TECNOLOGICO  NACIONAL DE</tspan></text>
  <text
     xml:space="preserve"
     style="font-style:normal;font-weight:normal;font-size:29.33333333px;line-height:1.25;font-family:sans-serif;letter-spacing:-32.36999893px;word-spacing:0px;fill:#000000;fill-opacity:1;stroke:none;"
     x="209.12122"
     y="117.75421"
     id="text3416"><tspan
       sodipodi:role="line"
       id="tspan3414"
       x="209.12122"
       y="138.98859" /></text>
  <text
     xml:space="preserve"
     style="font-style:normal;font-weight:normal;font-size:32px;line-height:1.25;font-family:sans-serif;letter-spacing:-32.36999893px;word-spacing:0px;fill:#000000;fill-opacity:1;stroke:none;"
     x="209.00842"
     y="117.75421"
     id="text3420"><tspan
       sodipodi:role="line"
       id="tspan3418"
       x="209.00842"
       y="138.98859" /></text>
  <path
     style="fill:#28407e;stroke:none;stroke-width:0.87642956px;stroke-linecap:butt;stroke-linejoin:round;stroke-opacity:1;fill-opacity:1"
     d="m 206.51869,100.95268 -0.008,-1.437717 0.0313,-3.799261 c -1.13268,-0.404646 -0.8131,-1.002569 -3.46267,-1.872262 -4.02051,-1.06482 -5.07473,-0.171455 -6.98003,0.173876 -3.64594,1.976022 -5.04858,4.223881 -5.73196,6.570804 -0.71967,2.48629 -0.95122,5.1353 -4e-5,8.17854 0.79497,2.8649 2.65309,5.23711 5.66207,6.431 3.51554,1.01618 5.86277,0.71801 7.89893,0.07 1.73586,-0.83301 1.43621,-0.68422 2.44168,-1.88246 l 0.0119,-1.3383 0.0713,-2.67489 -3.29385,2.40055 c -1.48653,0.39443 -2.80781,0.93343 -5.73196,0.0698 -1.1155,-0.53902 -2.21356,-1.23487 -3.14559,-3.4252 -0.51081,-2.14487 -0.67378,-4.52163 -0.0698,-7.40964 0.34808,-1.639772 1.40131,-2.809441 2.86602,-3.704804 1.74362,-0.472007 3.48488,-0.954704 5.59216,0.209711 l 1.39803,0.908726 z"
     id="path1894-2"
     inkscape:connector-curvature="0"
     sodipodi:nodetypes="cccccccccccccccccccc"
     inkscape:export-xdpi="96"
     inkscape:export-ydpi="96" />
  <text
     xml:space="preserve"
     style="font-style:normal;font-weight:bold;font-size:29.62666667px;line-height:1.25;font-family:sans-serif;letter-spacing:0px;word-spacing:0px;fill:#28407e;fill-opacity:1;stroke:none;-inkscape-font-specification:'sans-serif Bold';font-stretch:normal;font-variant:normal;"
     x="207.8391"
     y="115.66264"
     id="text26"
     inkscape:export-xdpi="96"
     inkscape:export-ydpi="96"><tspan
       sodipodi:role="line"
       id="tspan24"
       x="207.8391"
       y="115.66264">O</tspan></text>
</svg>
